<?xml version="1.0" encoding="utf-8"?>
<!-- Generator: Adobe Illustrator 24.1.2, SVG Export Plug-In . SVG Version: 6.00 Build 0)  -->
<svg version="1.1" id="objects" xmlns="http://www.w3.org/2000/svg" xmlns:xlink="http://www.w3.org/1999/xlink" x="0px" y="0px"
	 width="1552.6px" height="1552.5px" viewBox="0 0 1552.6 1552.5" style="enable-background:new 0 0 1552.6 1552.5;"
	 xml:space="preserve">
<style type="text/css">
	.st0{fill:#93BD57;}
	.st1{fill:#A1CF5F;}
	.st2{fill:#A9D36D;}
	.st3{fill:#84AA4E;}
	.st4{fill:#B2D77C;}
	.st5{fill:#8BDAE7;}
	.st6{fill:#72D2E2;}
	.st7{fill:#68BFCE;}
	.st8{fill:#5EACB9;}
	.st9{fill:#7ED6E4;}
	.st10{opacity:0.96;}
	.st11{opacity:0.96;fill:#FFFFFF;}
	.st12{fill:#FFFFFF;}
	.st13{fill:#878699;}
</style>
<g>
	<g>
		<g>
			<path class="st0" d="M573.3,1040.2c-79.1-61-130.2-156.6-130.2-263.9c0-32.6,4.8-64.1,13.6-93.9l-92.9-84.6l-126.1,14
				c-15.9,52.1-24.5,107.3-24.5,164.5c0,183.7,88.4,347.1,224.9,449.9l25.5-123.5L573.3,1040.2z"/>
		</g>
		<g>
			<path class="st1" d="M964.7,1050.9c-53.6,36.9-118.5,58.5-188.3,58.5c-69.6,0-134.2-21.5-187.7-58.1L479,1113.9l-25.5,123.5
				c91.5,64.3,202.9,102,322.9,102c120.2,0,231.7-37.9,323.2-102.2l-109.2-62.2L964.7,1050.9z"/>
		</g>
		<g>
			<path class="st2" d="M1220.5,697.6l-124.2-13.7c8.5,29.4,13.2,60.4,13.2,92.5c0,107.1-50.8,202.4-129.5,263.4l25.7,124.1
				l109.2,62.2c136.3-102.9,224.6-266.2,224.6-449.7c0-57.3-8.6-112.5-24.6-164.6L1220.5,697.6z"/>
		</g>
		<g>
			<path class="st3" d="M462.5,664.4c45.1-126,163.9-217,304.2-221l51.9-114.7l-52.1-115.3c-242.4,4.2-447.9,162.2-522.9,380.5
				l126.1-14L462.5,664.4z"/>
		</g>
		<g>
			<path class="st4" d="M785.7,443.4c140.9,3.9,260.2,95.7,304.9,222.5l124.1,13.7l94.3-85.9c-75.1-218.4-280.9-376.5-523.6-380.4
				l52.1,115.3L785.7,443.4z"/>
		</g>
	</g>
	<g>
		<g>
			<path class="st5" d="M1239.6,153.3l-87.8,120.9c23.7,17.8,46.4,37.5,67.8,58.8c63.3,63.3,111.4,137.7,142.4,218.9l-20.6,40.4
				l40.3,20.6c14.1,52.6,21.4,107.4,21.4,163.4c0,63.8-9.5,126.2-27.8,185.6l142.1,46.2c22.9-73.2,35.2-151,35.2-231.7
				C1552.6,521.2,1429.6,294.9,1239.6,153.3z"/>
		</g>
		<g>
			<path class="st6" d="M434.5,1301.9l-7.1-45.1l-45,7.1c-17.1-13.8-33.5-28.6-49.3-44.4c-69.1-69.1-120-151.4-150.5-241.3
				l-142.1,46.2c102.6,304.5,389,524.4,727.2,528.1v-149.5C647.6,1401.5,532.9,1366.3,434.5,1301.9z"/>
		</g>
		<g>
			<path class="st7" d="M400.9,274.2L313,153.3C123.1,294.9,0,521.2,0,776.3c0,80.7,12.3,158.5,35.2,231.7l142.1-46.2
				c-18.3-59.3-27.8-121.7-27.8-185.6c0-55.9,7.3-110.6,21.4-163.1l40.4-20.6l-20.7-40.5c31.1-81.2,79.1-155.7,142.5-219
				C354.4,311.7,377.1,292.1,400.9,274.2z"/>
		</g>
		<g>
			<path class="st8" d="M1225.7,143.2C1098.8,53,943.8,0,776.3,0C608.9,0,453.8,53,327,143.2L414.8,264
				c96.3-68.3,209.7-107.6,329.2-113.7l32.4,32.4l32.4-32.4c119.5,6,232.8,45.4,329.2,113.7L1225.7,143.2z"/>
		</g>
		<g>
			<path class="st9" d="M1370,978.3c-30.5,89.9-81.4,172.2-150.5,241.3c-15.8,15.8-32.4,30.7-49.6,44.6l-44.9-7.1l-7.1,45
				c-98.4,64.2-213,99.4-333,101v149.5c338.2-3.7,624.5-223.6,727.2-528.1L1370,978.3z"/>
		</g>
	</g>
	<g class="st10">
		<g>
			<path class="st11" d="M472.7,170.6l-20.1-42.5l11.4-5.4c6.5-3.1,12.4-3.7,17.7-1.9c5.3,1.8,9.6,6.2,12.9,13.2
				c1.7,3.5,2.7,6.8,3,10c0.3,3.1,0.1,6-0.9,8.6c-0.9,2.6-2.4,5-4.5,7.1c-2.1,2.1-4.7,3.9-7.8,5.4L472.7,170.6z M477.3,160.9
				l3.3-1.6c4.3-2,7.1-4.9,8.2-8.4c1.1-3.6,0.5-8-2-13.2c-2.5-5.2-5.4-8.4-8.9-9.7c-3.5-1.3-7.3-0.9-11.6,1.1l-3.3,1.6L477.3,160.9z
				"/>
			<path class="st11" d="M524.9,148.2c-2.3,0.9-4.5,1.4-6.8,1.4c-2.3,0-4.4-0.4-6.5-1.3c-2.1-0.9-3.9-2.2-5.6-4
				c-1.7-1.8-3.1-4-4.2-6.7c-1.1-2.7-1.6-5.2-1.6-7.7c0-2.5,0.4-4.7,1.2-6.8c0.8-2,2-3.8,3.5-5.4c1.5-1.5,3.2-2.7,5.1-3.5
				c2.2-0.9,4.3-1.3,6.3-1.2c2,0.1,3.8,0.6,5.5,1.5c1.7,0.9,3.2,2.2,4.6,3.9c1.3,1.7,2.5,3.6,3.4,5.9c0.3,0.8,0.6,1.5,0.8,2.2
				c0.2,0.7,0.3,1.3,0.4,1.7l-20.8,8.4c1.5,2.8,3.5,4.6,5.8,5.5c2.3,0.9,4.9,0.8,7.5-0.3c1.4-0.6,2.7-1.3,3.7-2.2
				c1.1-0.9,2-2,2.9-3.2l4.5,3.7c-1.1,1.7-2.5,3.2-4.2,4.6C528.9,146.2,527,147.4,524.9,148.2z M508,131.5l14.5-5.9
				c-1-2.5-2.4-4.3-4-5.3c-1.7-1-3.6-1-5.9-0.1c-2,0.8-3.4,2.2-4.3,4.1C507.4,126.3,507.3,128.7,508,131.5z"/>
			<path class="st11" d="M546.8,153.6l-16-46.6l6.5-2.2l1.8,3.3l0.3-0.1c1-1.7,2.2-3.2,3.6-4.7c1.4-1.5,3.1-2.5,4.9-3.1
				c2.1-0.7,4.1-1,5.9-0.7c1.9,0.2,3.6,0.9,5.3,2c1.6,1.1,3.1,2.6,4.4,4.5c1.3,1.9,2.4,4.1,3.3,6.7c1,2.9,1.5,5.5,1.4,8.1
				c0,2.5-0.4,4.8-1.2,6.7c-0.8,2-1.9,3.7-3.4,5.1c-1.4,1.4-3.1,2.4-5,3.1c-1.5,0.5-3,0.7-4.7,0.5c-1.7-0.1-3.4-0.6-5.1-1.3l2.1,5.5
				l3.6,10.5L546.8,153.6z M554.9,129.8c2.2-0.8,3.7-2.4,4.6-4.8c0.8-2.4,0.6-5.6-0.7-9.4c-1.1-3.4-2.6-5.8-4.4-7.2
				c-1.8-1.5-3.9-1.8-6.5-0.9c-2.4,0.8-4.4,2.9-6.1,6.3l5.3,15.6c1.6,0.6,3,0.9,4.3,1C552.8,130.3,553.9,130.1,554.9,129.8z"/>
			<path class="st11" d="M586.8,126.9c-2.8,0.8-5.1,0.6-6.8-0.8c-1.7-1.4-2.9-3.5-3.8-6.4l-11.9-40l7.9-2.4l12,40.4
				c0.3,1,0.7,1.6,1.2,1.9c0.5,0.3,0.9,0.4,1.3,0.2c0.2-0.1,0.4-0.1,0.5-0.2c0.2,0,0.4-0.2,0.7-0.4l2.8,5.6
				C589.9,125.7,588.5,126.3,586.8,126.9z"/>
			<path class="st11" d="M609.7,120.6c-2.1,0.5-4.3,0.7-6.4,0.4s-4.2-1-6.1-2.2s-3.6-2.7-5-4.7c-1.4-2-2.5-4.4-3.2-7.3
				c-0.7-2.8-0.9-5.5-0.6-7.9c0.3-2.5,1-4.6,2.2-6.6c1.1-1.9,2.6-3.5,4.3-4.8c1.7-1.3,3.7-2.2,5.8-2.8c2.1-0.5,4.3-0.7,6.5-0.3
				c2.2,0.3,4.2,1,6.1,2.2c1.9,1.2,3.5,2.7,5,4.7c1.5,2,2.6,4.4,3.3,7.2c0.7,2.8,0.9,5.5,0.6,7.9c-0.3,2.5-1.1,4.6-2.2,6.6
				c-1.1,1.9-2.5,3.5-4.3,4.8S611.9,120.1,609.7,120.6z M608.1,114.1c2.5-0.6,4.2-2.2,5.1-4.6c0.9-2.4,0.9-5.4,0.1-8.8
				c-0.9-3.5-2.3-6.1-4.3-7.8c-2-1.7-4.2-2.2-6.7-1.6c-2.5,0.6-4.2,2.2-5.1,4.6c-0.9,2.4-0.9,5.4,0,8.9c0.9,3.4,2.3,6,4.2,7.7
				C603.4,114.2,605.6,114.7,608.1,114.1z"/>
			<path class="st11" d="M636.4,128.3c-0.9,0.2-1.8,0.3-2.5,0.3c-0.7,0-1.4,0-2.1-0.1l0.2-6.6c0.3,0,0.8,0.1,1.2,0.1
				c0.5,0,0.9,0,1.3-0.1c1.8-0.4,3.2-1.2,4.1-2.5c0.9-1.3,1.4-2.9,1.7-4.8l0.2-2.3L620,80.8l8.2-1.6l9.4,15.8
				c0.8,1.4,1.6,2.9,2.5,4.5c0.8,1.6,1.7,3.1,2.5,4.7l0.3-0.1c0.1-1.7,0.2-3.4,0.3-5.2c0.1-1.8,0.2-3.5,0.3-5.1l1.8-18l7.8-1.6
				l-5.4,38.7c-0.3,2.1-0.7,4-1.3,5.7s-1.2,3.2-2.1,4.6c-0.9,1.3-2,2.4-3.3,3.3C639.8,127.3,638.2,128,636.4,128.3z"/>
			<path class="st11" d="M663.5,108l-4.5-35l6.8-0.9l1.2,4.7l0.3,0c1.3-1.8,2.7-3.3,4.3-4.6c1.6-1.3,3.5-2.1,5.7-2.4
				c2.6-0.3,4.7-0.1,6.4,0.8c1.7,0.9,3.1,2.3,4.1,4.2c1.4-2,3-3.7,4.6-5.2c1.7-1.4,3.6-2.3,5.8-2.6c3.7-0.5,6.6,0.4,8.7,2.5
				c2.1,2.2,3.4,5.5,4,10l2.8,21.9l-8.3,1.1l-2.7-20.9c-0.4-2.9-1.1-4.9-2.1-6c-1-1.1-2.5-1.5-4.3-1.3c-2.2,0.3-4.4,2.1-6.8,5.3
				l3.2,24.4l-8.2,1.1l-2.7-20.9c-0.4-2.9-1.1-4.9-2.1-6c-1-1.1-2.5-1.5-4.3-1.3c-2.2,0.3-4.4,2.1-6.8,5.3l3.2,24.4L663.5,108z"/>
			<path class="st11" d="M736.1,101.1c-2.4,0.2-4.7-0.1-6.9-0.8c-2.2-0.7-4.1-1.8-5.7-3.3c-1.7-1.5-3-3.3-4.1-5.5
				c-1-2.2-1.6-4.8-1.8-7.7c-0.2-2.9,0.1-5.5,0.9-7.8c0.8-2.4,1.9-4.4,3.3-6c1.4-1.7,3.1-3,5-4c1.9-1,3.9-1.5,5.9-1.7
				c2.4-0.1,4.5,0.1,6.4,0.8c1.9,0.7,3.5,1.8,4.8,3.2c1.3,1.4,2.3,3.1,3.1,5.1c0.7,2,1.2,4.2,1.3,6.7c0,0.8,0.1,1.6,0,2.3
				s-0.1,1.3-0.1,1.7l-22.4,1.4c0.6,3.1,1.8,5.5,3.8,7.1c1.9,1.6,4.4,2.3,7.2,2.1c1.5-0.1,2.9-0.4,4.2-0.9c1.3-0.5,2.6-1.2,3.8-2.1
				l3.1,5c-1.6,1.2-3.4,2.2-5.4,3.1C740.5,100.5,738.3,101,736.1,101.1z M725.4,79.9l15.6-1c-0.2-2.7-0.9-4.8-2.2-6.3
				s-3.1-2.1-5.6-2c-2.1,0.1-3.9,1-5.4,2.6C726.4,74.8,725.6,77,725.4,79.9z"/>
			<path class="st11" d="M755.2,99.4l-0.6-35.3l6.8-0.1l0.7,4.7l0.3,0c1.6-1.6,3.2-2.9,5.1-4c1.8-1.1,4-1.7,6.4-1.8
				c3.8-0.1,6.6,1.1,8.3,3.5c1.8,2.4,2.7,5.8,2.8,10.3l0.4,22.1l-8.3,0.1L776.7,78c0-2.9-0.5-5-1.4-6.2c-0.9-1.2-2.3-1.8-4.3-1.7
				c-1.5,0-2.9,0.4-4,1.2c-1.2,0.8-2.5,1.9-3.9,3.3l0.4,24.6L755.2,99.4z"/>
			<path class="st11" d="M805.6,100.6c-2.1-0.1-3.8-0.4-5.2-1.1c-1.4-0.7-2.5-1.6-3.4-2.7c-0.8-1.2-1.4-2.5-1.8-4.1
				c-0.4-1.6-0.5-3.3-0.4-5.2l0.6-16.8l-5-0.2l0.2-6.2l5.5-0.2l1.3-9.6l6.9,0.2l-0.3,9.6l9,0.3l-0.2,6.5l-9-0.3l-0.6,16.8
				c-0.1,4.1,1.4,6.2,4.7,6.4c0.6,0,1.3,0,1.9-0.1c0.7-0.1,1.2-0.3,1.8-0.5l1.2,6.2c-1,0.3-2.1,0.6-3.3,0.8
				C808.3,100.5,807,100.6,805.6,100.6z"/>
			<path class="st11" d="M844.5,103.3c-2.4-0.2-4.6-0.8-6.6-1.9c-2-1-3.7-2.4-5.1-4.1c-1.4-1.7-2.4-3.8-3-6.1
				c-0.6-2.4-0.8-5-0.5-7.9s1-5.5,2.2-7.7c1.2-2.2,2.6-4,4.4-5.4c1.8-1.4,3.8-2.4,6-3.1c2.2-0.6,4.5-0.8,6.8-0.6
				c2.3,0.2,4.2,0.8,5.8,1.7c1.6,0.9,3,2,4.1,3.2l-4.5,5c-0.9-0.9-1.8-1.6-2.6-2.2c-0.9-0.5-1.9-0.9-3-1c-2.9-0.3-5.3,0.6-7.2,2.5
				c-2,2-3.1,4.7-3.5,8.3c-0.3,3.5,0.3,6.4,1.8,8.7c1.5,2.3,3.7,3.6,6.5,3.8c1.4,0.1,2.7,0,4-0.5c1.3-0.5,2.4-1.1,3.5-1.8l2.8,5.8
				c-1.8,1.3-3.7,2.2-5.8,2.7C848.5,103.4,846.5,103.5,844.5,103.3z"/>
			<path class="st11" d="M873.2,106.8c-2.2-0.3-4.2-1-6.1-2.1c-1.9-1.1-3.5-2.5-4.8-4.3s-2.3-3.9-2.8-6.3c-0.6-2.4-0.7-5.1-0.2-7.9
				s1.2-5.4,2.5-7.6c1.2-2.1,2.7-3.9,4.5-5.2c1.8-1.3,3.7-2.3,5.8-2.8s4.3-0.7,6.4-0.3c2.2,0.3,4.2,1,6.1,2.1
				c1.9,1.1,3.5,2.6,4.8,4.4c1.3,1.8,2.2,3.9,2.8,6.3c0.6,2.4,0.7,5.1,0.3,8c-0.4,2.9-1.2,5.4-2.5,7.6c-1.3,2.1-2.7,3.9-4.5,5.2
				c-1.7,1.3-3.7,2.3-5.8,2.8C877.6,107,875.4,107.1,873.2,106.8z M874.2,100.1c2.6,0.4,4.7-0.4,6.5-2.3c1.8-1.9,2.9-4.6,3.4-8.1
				c0.5-3.6,0.2-6.5-1-8.8c-1.2-2.3-3-3.7-5.6-4c-2.6-0.4-4.7,0.4-6.5,2.3c-1.8,1.9-2.9,4.6-3.4,8.2c-0.5,3.5-0.2,6.4,1,8.7
				C869.8,98.4,871.6,99.8,874.2,100.1z"/>
			<path class="st11" d="M895.4,109l7.4-34.5l6.7,1.4l-0.5,4.8l0.3,0.1c1.8-1.2,3.6-2.2,5.6-2.9c1.9-0.7,4-0.8,6.1-0.4
				c2.5,0.5,4.4,1.5,5.7,2.9c1.3,1.4,2.1,3.2,2.5,5.3c2-1.4,4-2.5,6.1-3.3c2-0.8,4.1-0.9,6.3-0.5c3.7,0.8,6.1,2.6,7.3,5.3
				c1.2,2.7,1.4,6.3,0.4,10.7l-4.7,21.6l-8.1-1.8l4.4-20.6c0.6-2.9,0.6-5,0-6.3c-0.6-1.4-1.8-2.2-3.6-2.6c-2.2-0.5-4.9,0.4-8.2,2.7
				l-5.2,24.1l-8.1-1.7l4.4-20.6c0.6-2.9,0.6-5,0-6.3c-0.6-1.4-1.8-2.2-3.7-2.6c-2.2-0.5-4.9,0.4-8.2,2.7l-5.2,24.1L895.4,109z"/>
			<path class="st11" d="M947.9,135.2L961.7,88l6.6,1.9l-0.5,3.7l0.3,0.1c1.8-0.8,3.7-1.4,5.7-1.7c2-0.4,3.9-0.3,5.8,0.3
				c2.1,0.6,3.9,1.6,5.3,2.8c1.4,1.3,2.5,2.8,3.2,4.7c0.7,1.9,1.1,3.9,1,6.2c0,2.3-0.4,4.7-1.2,7.4c-0.8,2.9-2,5.4-3.5,7.4
				c-1.5,2-3.1,3.6-4.9,4.8c-1.8,1.2-3.7,1.9-5.7,2.2c-2,0.3-3.9,0.2-5.8-0.3c-1.5-0.4-2.8-1.2-4.1-2.3c-1.3-1.1-2.4-2.4-3.5-4
				l-1.4,5.7l-3.1,10.6L947.9,135.2z M968.2,120.4c2.3,0.7,4.4,0.2,6.5-1.3c2.1-1.5,3.7-4.2,4.8-8.1c1-3.4,1.2-6.2,0.6-8.4
				c-0.6-2.2-2.2-3.7-4.8-4.5c-2.4-0.7-5.2-0.2-8.6,1.6l-4.6,15.8c0.9,1.4,1.9,2.5,2.9,3.3S967.2,120.1,968.2,120.4z"/>
			<path class="st11" d="M996,136.4c-2.8-0.9-4.5-2.5-5.1-4.5c-0.6-2.1-0.4-4.5,0.6-7.5l13.3-39.5l7.8,2.6l-13.5,39.9
				c-0.3,1-0.4,1.7-0.1,2.2c0.2,0.5,0.6,0.8,1,1c0.2,0.1,0.4,0.1,0.5,0.2c0.2,0.1,0.4,0.1,0.8,0.1l-1,6.2
				C999.2,137.2,997.7,137,996,136.4z"/>
			<path class="st11" d="M1019,144.8c-2.3-0.9-4.3-2.1-5.9-3.6s-3-3.3-3.9-5.4c-0.9-2-1.4-4.3-1.4-6.7c0-2.4,0.5-5,1.5-7.8
				c1-2.7,2.4-4.9,4-6.8c1.7-1.8,3.5-3.2,5.5-4.1c2-0.9,4-1.5,6.2-1.6c2.1-0.1,4.2,0.2,6.1,0.9c2.2,0.9,4.1,2,5.5,3.4
				c1.4,1.4,2.4,3,3,4.8c0.6,1.8,0.8,3.8,0.7,6c-0.2,2.1-0.7,4.4-1.5,6.6c-0.3,0.8-0.6,1.5-0.9,2.1c-0.3,0.6-0.6,1.2-0.8,1.5l-21-8
				c-0.8,3.1-0.6,5.8,0.5,8c1.1,2.2,3,3.9,5.7,4.9c1.4,0.5,2.8,0.8,4.2,0.9c1.4,0,2.8-0.1,4.3-0.4l0.8,5.8c-2,0.4-4,0.6-6.2,0.6
				C1023.3,146,1021.1,145.6,1019,144.8z M1018,121l14.6,5.6c1-2.6,1.2-4.8,0.6-6.6c-0.5-1.9-2-3.2-4.2-4.1c-2-0.8-4-0.7-6,0.1
				C1021.1,116.8,1019.4,118.5,1018,121z"/>
			<path class="st11" d="M1047.6,156.5c-1.9-0.8-3.4-1.8-4.4-2.9c-1.1-1.1-1.8-2.4-2.1-3.8c-0.4-1.4-0.4-2.9-0.2-4.5
				c0.2-1.6,0.7-3.3,1.5-5l6.6-15.4l-4.6-2l2.4-5.7l5.2,1.8l4.7-8.4l6.3,2.7l-3.8,8.8l8.3,3.5l-2.6,6l-8.3-3.5l-6.6,15.4
				c-1.6,3.8-0.9,6.3,2.1,7.6c0.6,0.2,1.2,0.4,1.8,0.6c0.7,0.1,1.3,0.2,1.8,0.2l-1.1,6.2c-1-0.1-2.1-0.2-3.4-0.5
				C1050.1,157.5,1048.9,157.1,1047.6,156.5z"/>
			<path class="st11" d="M1070.7,167.2c-2.2-1.1-4.1-2.4-5.6-4.1c-1.5-1.7-2.7-3.6-3.4-5.7c-0.7-2.1-1-4.4-0.8-6.8
				c0.2-2.4,0.9-5,2.2-7.6c1.2-2.6,2.8-4.7,4.6-6.4s3.7-2.9,5.8-3.7c2-0.8,4.1-1.1,6.3-1c2.1,0.1,4.1,0.6,6,1.4
				c2.2,1,3.9,2.3,5.2,3.8c1.3,1.5,2.2,3.2,2.6,5.1c0.5,1.9,0.5,3.9,0.2,6c-0.3,2.1-1,4.3-2.1,6.5c-0.4,0.7-0.7,1.4-1.1,2
				c-0.4,0.6-0.7,1.1-1,1.4l-20.2-9.7c-1,3-1.1,5.7-0.1,8c0.9,2.3,2.7,4.1,5.3,5.4c1.4,0.7,2.8,1.1,4.2,1.2c1.4,0.2,2.8,0.2,4.4,0
				l0.3,5.9c-2,0.3-4.1,0.3-6.2,0C1074.8,168.7,1072.7,168.1,1070.7,167.2z M1071.6,143.4l14.1,6.8c1.2-2.5,1.6-4.6,1.2-6.6
				c-0.4-1.9-1.7-3.4-3.9-4.5c-1.9-0.9-3.9-1-6-0.4C1075,139.4,1073.2,141,1071.6,143.4z"/>
		</g>
	</g>
	<g class="st10">
		<g>
			<path class="st11" d="M1249.1,291.3l22.6-43.7l6.3,6.2l-11.9,21.5c-1.3,2.4-2.6,4.7-3.9,6.9c-1.3,2.1-2.6,4.4-3.9,7l0.2,0.2
				c2.5-1.4,4.8-2.7,6.9-4c2.1-1.3,4.4-2.6,6.8-4l21.3-12.2l6.1,6l-43.4,23.2L1249.1,291.3z"/>
			<path class="st11" d="M1268.3,310.9l25.8-24.1l5.6,6l-25.8,24.1L1268.3,310.9z M1301.4,285.6c-1-1.1-1.5-2.3-1.6-3.6
				c0-1.3,0.5-2.4,1.5-3.4c1-0.9,2.2-1.4,3.5-1.3c1.3,0.1,2.5,0.7,3.5,1.8c1,1.1,1.5,2.3,1.5,3.6c0,1.3-0.5,2.4-1.5,3.4
				c-1,0.9-2.2,1.4-3.4,1.3C1303.6,287.3,1302.4,286.7,1301.4,285.6z"/>
			<path class="st11" d="M1285.6,331.2c-1.6-1.8-2.8-4-3.7-6.4s-1.3-4.7-1.4-6.9l6.6-0.6c0.1,2,0.4,3.8,0.9,5.5
				c0.5,1.6,1.4,3.1,2.5,4.5c1.3,1.4,2.5,2.2,3.7,2.4s2.3-0.2,3.2-1c0.5-0.5,0.9-1.1,1-1.7c0.1-0.7,0.1-1.4,0-2.3
				c-0.1-0.8-0.4-1.7-0.7-2.6c-0.3-0.9-0.6-1.9-1-2.8c-0.4-1.1-0.8-2.4-1.2-3.6c-0.4-1.3-0.5-2.5-0.5-3.8c0-1.2,0.2-2.4,0.6-3.6
				c0.4-1.2,1.2-2.2,2.3-3.2c2.3-2,5-2.9,8-2.4c3,0.4,5.8,2.2,8.4,5.2c1.6,1.8,2.7,3.8,3.4,5.8c0.6,2,1,4,1.1,5.8l-6.3,0.4
				c-0.1-1.5-0.4-3-0.8-4.3c-0.4-1.3-1.1-2.5-2-3.5c-1.2-1.3-2.3-2.1-3.4-2.2c-1.1-0.1-2.1,0.1-2.9,0.9c-0.5,0.5-0.9,1-1,1.7
				c-0.1,0.6-0.1,1.3,0.1,2.1c0.2,0.8,0.4,1.6,0.7,2.5c0.3,0.9,0.7,1.8,1.1,2.7c0.5,1.2,0.9,2.4,1.3,3.7c0.4,1.3,0.6,2.5,0.6,3.8
				c0,1.3-0.2,2.5-0.7,3.7c-0.5,1.2-1.3,2.4-2.6,3.4c-1.2,1-2.4,1.7-3.8,2.1c-1.4,0.4-2.8,0.5-4.3,0.3s-3-0.8-4.6-1.7
				C1288.6,334.2,1287.1,332.9,1285.6,331.2z"/>
			<path class="st11" d="M1298.8,345.3l27.3-22.3l5.2,6.4l-27.3,22.3L1298.8,345.3z M1333.5,322.4c-0.9-1.2-1.4-2.4-1.3-3.7
				c0.1-1.3,0.6-2.4,1.7-3.2c1.1-0.9,2.3-1.2,3.6-1c1.3,0.2,2.4,0.8,3.3,2c0.9,1.2,1.4,2.4,1.3,3.7c-0.1,1.3-0.7,2.4-1.7,3.3
				c-1.1,0.9-2.3,1.2-3.5,1C1335.6,324.2,1334.5,323.5,1333.5,322.4z"/>
			<path class="st11" d="M1317.4,370.4c-1.3-1.8-2.3-3.7-2.8-5.8s-0.7-4.2-0.3-6.4c0.3-2.2,1.1-4.3,2.4-6.5c1.3-2.1,3.1-4,5.4-5.8
				c2.3-1.8,4.7-3,7.1-3.6c2.4-0.7,4.7-0.8,6.9-0.5c2.2,0.3,4.2,1,6.1,2.1c1.9,1.1,3.5,2.5,4.8,4.3c1.3,1.8,2.3,3.7,2.8,5.8
				c0.6,2.1,0.7,4.3,0.3,6.5c-0.3,2.2-1.2,4.3-2.4,6.5s-3.1,4.1-5.4,5.8c-2.3,1.8-4.7,3-7.1,3.6c-2.4,0.6-4.7,0.8-6.9,0.5
				c-2.2-0.3-4.2-1-6.1-2.1C1320.3,373.6,1318.7,372.2,1317.4,370.4z M1322.8,366.4c1.6,2.1,3.6,3.1,6.2,3c2.6-0.1,5.3-1.2,8.1-3.3
				c2.9-2.2,4.7-4.5,5.5-6.9c0.8-2.5,0.4-4.7-1.1-6.8c-1.6-2.1-3.6-3-6.2-2.9c-2.6,0.1-5.3,1.2-8.2,3.4c-2.8,2.1-4.7,4.4-5.5,6.9
				C1320.9,362,1321.3,364.3,1322.8,366.4z"/>
			<path class="st11" d="M1331.5,388.1l29.3-19.6l3.8,5.7l-3.6,3.1l0.2,0.2c2.2,0.5,4.2,1.2,6.1,2.1c1.9,0.9,3.6,2.4,4.9,4.4
				c2.1,3.1,2.6,6.1,1.6,8.9c-1.1,2.8-3.5,5.4-7.2,7.9l-18.4,12.3l-4.6-6.9l17.5-11.7c2.4-1.6,3.9-3.1,4.4-4.5
				c0.5-1.4,0.2-2.9-0.9-4.5c-0.9-1.3-1.9-2.2-3.2-2.8c-1.3-0.6-2.9-1.1-4.9-1.5l-20.5,13.7L1331.5,388.1z"/>
			<path class="st11" d="M1346.9,433l62.5-16.9l2.8,4.8l-62.5,16.9L1346.9,433z"/>
			<path class="st11" d="M1382.1,475.2c-1.4-2.8-2.2-5.8-2.5-9c-0.2-3.2,0.1-6.3,1.1-9.3l7.3,1.8c-0.7,2.2-1,4.5-0.9,6.9
				c0.1,2.4,0.6,4.5,1.6,6.4c1.2,2.4,2.6,4,4.2,4.7c1.6,0.8,3.2,0.7,4.9-0.1c0.9-0.4,1.5-1,1.9-1.6c0.4-0.6,0.7-1.3,0.9-2.1
				c0.2-0.8,0.2-1.7,0.2-2.7c0-1-0.1-2-0.1-3.2l-0.4-7c-0.1-1.2-0.1-2.5,0.1-3.9c0.1-1.3,0.5-2.6,1-3.9c0.5-1.3,1.2-2.4,2.2-3.5
				c1-1.1,2.2-2,3.7-2.8c1.7-0.8,3.4-1.3,5.2-1.3c1.8,0,3.5,0.3,5.2,1.1c1.7,0.7,3.3,1.8,4.7,3.2c1.5,1.4,2.7,3.2,3.7,5.2
				c1.2,2.4,1.9,5,2.1,7.8c0.2,2.8-0.2,5.4-1,7.8l-6.7-1.4c0.4-1.9,0.6-3.8,0.5-5.6c-0.1-1.8-0.6-3.6-1.5-5.4c-1-2-2.2-3.4-3.7-4.2
				c-1.5-0.8-3-0.8-4.5,0c-0.8,0.4-1.4,0.9-1.8,1.6c-0.4,0.7-0.7,1.4-0.8,2.2c-0.1,0.8-0.2,1.8-0.1,2.8c0,1,0.1,2,0.2,3l0.5,6.9
				c0.1,1.5,0.1,2.9-0.1,4.3c-0.2,1.4-0.5,2.7-1,3.9c-0.5,1.2-1.3,2.3-2.2,3.3c-1,1-2.2,1.9-3.8,2.7c-1.7,0.9-3.5,1.3-5.3,1.4
				s-3.7-0.3-5.4-1c-1.8-0.7-3.5-1.9-5.1-3.4S1383.3,477.6,1382.1,475.2z"/>
			<path class="st11" d="M1397.8,508.9c-1-2.2-1.5-4.4-1.6-6.6c-0.1-2.2,0.3-4.4,1.1-6.4c0.8-2,2.1-3.9,3.9-5.6
				c1.8-1.7,4-3.2,6.7-4.3s5.3-1.8,7.8-1.8c2.5,0,4.8,0.4,6.9,1.2s4,2.1,5.6,3.7c1.6,1.6,2.9,3.5,3.8,5.7c0.9,2.1,1.4,4.1,1.3,5.9
				c0,1.8-0.3,3.5-0.8,5.2l-6.5-1.5c0.4-1.2,0.6-2.3,0.6-3.4c0-1-0.2-2.1-0.6-3.1c-1.2-2.6-3.1-4.3-5.7-5.1c-2.7-0.8-5.6-0.4-8.9,1
				c-3.3,1.4-5.5,3.4-6.8,5.8c-1.3,2.5-1.3,5-0.2,7.5c0.6,1.3,1.4,2.3,2.4,3.2s2.1,1.6,3.3,2.2l-3.7,5.3c-2-1-3.7-2.2-5.2-3.7
				C1399.7,512.4,1398.6,510.7,1397.8,508.9z"/>
			<path class="st11" d="M1408.7,535.7c-0.8-2.1-1.2-4.2-1.1-6.3c0-2.2,0.5-4.3,1.5-6.3c0.9-2,2.3-3.9,4.1-5.5
				c1.8-1.7,4.1-3,6.8-4.1c2.7-1,5.3-1.5,7.8-1.5c2.5,0,4.7,0.5,6.8,1.4s3.8,2.1,5.3,3.7c1.5,1.6,2.6,3.4,3.4,5.5s1.1,4.2,1.1,6.4
				c-0.1,2.2-0.6,4.3-1.5,6.3c-0.9,2-2.3,3.8-4.1,5.5c-1.8,1.7-4.1,3.1-6.8,4.1c-2.7,1-5.3,1.5-7.8,1.5c-2.5-0.1-4.7-0.5-6.8-1.4
				c-2-0.9-3.8-2.1-5.3-3.7C1410.6,539.6,1409.4,537.8,1408.7,535.7z M1415,533.3c0.9,2.4,2.6,3.9,5.2,4.6c2.5,0.6,5.4,0.3,8.8-0.9
				c3.4-1.3,5.8-3,7.2-5.1c1.5-2.1,1.7-4.4,0.8-6.8c-0.9-2.4-2.6-3.9-5.1-4.5c-2.5-0.6-5.4-0.3-8.8,1c-3.3,1.3-5.7,3-7.2,5.1
				C1414.3,528.6,1414,530.9,1415,533.3z"/>
			<path class="st11" d="M1404,560.8l46.9-14.9l2.1,6.5l-3.4,1.7l0.1,0.3c1.6,1,3.2,2.3,4.6,3.7c1.4,1.5,2.4,3.1,3,5
				c0.7,2.1,0.9,4.1,0.6,6c-0.3,1.9-1,3.6-2.1,5.2c-1.1,1.6-2.7,3.1-4.6,4.3c-1.9,1.3-4.2,2.3-6.8,3.1c-2.9,0.9-5.6,1.3-8.1,1.3
				c-2.5-0.1-4.7-0.5-6.7-1.4c-2-0.8-3.6-2-5-3.5c-1.4-1.5-2.4-3.1-3-5c-0.5-1.5-0.6-3-0.4-4.7c0.2-1.7,0.6-3.4,1.4-5.1l-5.5,2
				l-10.5,3.4L1404,560.8z M1427.6,569.5c0.7,2.2,2.3,3.8,4.7,4.7c2.4,0.9,5.5,0.7,9.4-0.5c3.4-1.1,5.8-2.5,7.3-4.2
				c1.5-1.7,1.9-3.9,1-6.4c-0.8-2.4-2.8-4.4-6.1-6.2l-15.7,5c-0.7,1.6-1,3-1.1,4.3C1427.2,567.3,1427.3,568.5,1427.6,569.5z"/>
			<path class="st11" d="M1431.6,607.9c-0.6-2.4-0.8-4.7-0.5-6.9c0.3-2.3,1-4.3,2.1-6.3c1.1-1.9,2.7-3.6,4.7-5
				c2-1.4,4.4-2.5,7.2-3.2c2.8-0.7,5.4-0.9,7.9-0.6c2.5,0.3,4.6,1,6.5,2.1c1.9,1.1,3.5,2.4,4.9,4.1c1.3,1.7,2.3,3.5,2.8,5.5
				c0.6,2.3,0.7,4.5,0.4,6.4c-0.3,2-1.1,3.7-2.2,5.3c-1.1,1.6-2.6,2.9-4.5,4c-1.8,1.1-3.9,2-6.3,2.6c-0.8,0.2-1.5,0.4-2.3,0.5
				s-1.3,0.2-1.7,0.2l-5.6-21.7c-3,1.2-5,2.9-6.2,5.1c-1.2,2.2-1.4,4.7-0.7,7.5c0.4,1.5,1,2.8,1.7,4c0.8,1.2,1.7,2.3,2.8,3.3l-4.3,4
				c-1.5-1.3-2.8-2.9-4.1-4.7C1433,612.1,1432.1,610.1,1431.6,607.9z M1450.4,593.3l3.9,15.2c2.6-0.7,4.6-1.8,5.8-3.3
				c1.2-1.5,1.5-3.5,0.9-5.8c-0.5-2-1.7-3.6-3.5-4.8C1455.6,593.4,1453.2,593,1450.4,593.3z"/>
			<path class="st11" d="M1438.8,633.4l49,6.6l1.8,9.6l-43.5,23.5l-1.6-8.6l11.8-5.9l-2.9-15.5l-13.2-1.3L1438.8,633.4z
				 M1466.2,644.4l-6-0.6l2.2,11.8l5.4-2.7c2.3-1.2,4.7-2.4,7.2-3.5c2.5-1.2,4.9-2.3,7.3-3.4l-0.1-0.3c-2.7-0.2-5.4-0.4-8.1-0.6
				C1471.4,644.9,1468.8,644.7,1466.2,644.4z"/>
			<path class="st11" d="M1432.5,677.6l48.8-6.2l0.9,6.8l-3.6,1l0,0.3c1.4,1.3,2.7,2.8,3.8,4.5c1.1,1.7,1.8,3.5,2.1,5.5
				c0.3,2.2,0.1,4.2-0.5,6c-0.6,1.8-1.6,3.4-3.1,4.8c-1.4,1.4-3.2,2.5-5.3,3.4c-2.1,0.9-4.5,1.5-7.2,1.9c-3,0.4-5.7,0.3-8.2-0.2
				c-2.5-0.5-4.6-1.4-6.3-2.6c-1.8-1.2-3.2-2.6-4.3-4.3c-1.1-1.7-1.7-3.5-2-5.5c-0.2-1.5,0-3.1,0.4-4.7c0.5-1.6,1.2-3.2,2.3-4.8
				l-5.8,1l-11,1.4L1432.5,677.6z M1454.2,690.3c0.3,2.3,1.5,4.2,3.8,5.5c2.2,1.3,5.3,1.7,9.3,1.2c3.5-0.4,6.2-1.4,8-2.8
				c1.8-1.4,2.5-3.5,2.2-6.1c-0.3-2.5-1.9-4.9-4.9-7.2l-16.3,2.1c-0.9,1.4-1.5,2.8-1.8,4C1454.1,688.1,1454,689.3,1454.2,690.3z"/>
			<path class="st11" d="M1437,714.7l49.1-3.4l0.5,6.8l-3.7,0.8l0,0.3c1.3,1.4,2.5,3,3.6,4.7c1,1.8,1.6,3.6,1.8,5.6
				c0.2,2.2-0.1,4.2-0.8,5.9c-0.7,1.8-1.8,3.3-3.3,4.6c-1.5,1.3-3.3,2.3-5.5,3.1c-2.2,0.8-4.6,1.3-7.3,1.4c-3,0.2-5.7,0-8.2-0.7
				c-2.4-0.7-4.5-1.6-6.2-2.9c-1.7-1.3-3-2.8-4-4.5c-1-1.8-1.5-3.6-1.7-5.6c-0.1-1.5,0.1-3.1,0.7-4.7c0.6-1.6,1.4-3.1,2.6-4.6
				l-5.9,0.6l-11,0.8L1437,714.7z M1457.9,728.6c0.2,2.3,1.3,4.2,3.5,5.7c2.1,1.4,5.2,2,9.2,1.7c3.5-0.2,6.2-1,8.1-2.4
				c1.9-1.3,2.7-3.3,2.5-6c-0.2-2.5-1.7-5-4.5-7.5l-16.4,1.1c-1,1.4-1.7,2.7-2,3.9C1457.9,726.4,1457.8,727.6,1457.9,728.6z"/>
			<path class="st11" d="M1453.2,752l35.3-0.8l0.2,6.8l-6.2,0.7l0,0.3c2.3,1.2,4.1,2.7,5.4,4.4s1.9,3.5,2,5.4c0,1.7-0.2,3-0.6,4
				l-7.2-1.3c0.2-0.6,0.3-1.2,0.4-1.7s0.1-1.2,0.1-1.9c0-1.4-0.6-2.8-1.7-4.3c-1.1-1.5-3-2.8-5.7-3.8l-21.6,0.5L1453.2,752z"/>
			<path class="st11" d="M1452.5,790.4c0-2.2,0.5-4.3,1.4-6.3c0.9-2,2.1-3.8,3.7-5.3c1.6-1.5,3.6-2.7,5.9-3.6
				c2.3-0.9,4.9-1.3,7.9-1.2c2.9,0.1,5.5,0.6,7.8,1.5c2.3,1,4.2,2.2,5.7,3.8c1.5,1.6,2.7,3.4,3.5,5.4c0.8,2,1.2,4.1,1.1,6.3
				s-0.5,4.3-1.4,6.3c-0.9,2-2.1,3.8-3.7,5.3c-1.6,1.5-3.6,2.7-5.9,3.6c-2.3,0.9-4.9,1.3-7.9,1.2c-2.9-0.1-5.5-0.6-7.8-1.6
				c-2.3-1-4.2-2.3-5.7-3.8c-1.5-1.6-2.7-3.4-3.5-5.4C1452.9,794.7,1452.5,792.6,1452.5,790.4z M1459.3,790.5
				c-0.1,2.6,1,4.6,3.1,6.2c2.1,1.5,4.9,2.3,8.5,2.4c3.6,0.1,6.5-0.6,8.6-2.1c2.2-1.4,3.3-3.5,3.3-6c0.1-2.6-1-4.6-3.1-6.1
				c-2.1-1.5-4.9-2.3-8.5-2.4c-3.5-0.1-6.4,0.6-8.6,2C1460.5,785.9,1459.4,787.9,1459.3,790.5z"/>
			<path class="st11" d="M1452.1,820.6l36.1-9.7l-0.6,8.4l-18.7,4.3c-1.8,0.4-3.5,0.7-5.3,1.1c-1.8,0.4-3.6,0.7-5.5,1.1l0,0.3
				c1.8,0.7,3.5,1.3,5.3,1.9c1.7,0.6,3.4,1.2,5.1,1.9l17.9,6.9l-0.6,8l-34.3-14.5L1452.1,820.6z"/>
			<path class="st11" d="M1447.5,860.4c0.3-2.4,1-4.6,2.1-6.6c1.1-2,2.5-3.7,4.3-5.1c1.8-1.4,3.8-2.4,6.2-3c2.4-0.6,5-0.7,7.9-0.4
				c2.9,0.3,5.4,1.1,7.5,2.3c2.2,1.2,4,2.6,5.3,4.3c1.4,1.7,2.4,3.6,3,5.6c0.6,2.1,0.8,4.1,0.6,6.1c-0.3,2.4-0.9,4.4-2,6.1
				c-1,1.7-2.4,3.1-4,4.1c-1.6,1-3.5,1.7-5.6,2.1c-2.1,0.4-4.4,0.4-6.8,0.1c-0.8-0.1-1.6-0.2-2.3-0.4s-1.3-0.3-1.7-0.5l2.7-22.3
				c-3.2,0-5.7,0.8-7.6,2.4c-1.9,1.6-3,3.9-3.4,6.7c-0.2,1.5-0.1,3,0.2,4.3c0.3,1.4,0.8,2.7,1.4,4.1l-5.5,2.2
				c-0.9-1.8-1.6-3.8-2-5.9C1447.4,864.8,1447.3,862.6,1447.5,860.4z M1470.3,853.7l-1.9,15.6c2.7,0.3,4.9,0,6.6-1
				c1.7-1,2.7-2.7,3-5.1c0.3-2.1-0.3-4-1.5-5.8C1475.2,855.6,1473.2,854.4,1470.3,853.7z"/>
			<path class="st11" d="M1443,891.4c0.8-4.4,3-7.6,6.6-9.6c3.6-2,8.3-2.5,14.1-1.5c2.8,0.5,5.3,1.4,7.4,2.6
				c2.1,1.2,3.8,2.7,5.2,4.3c1.3,1.6,2.2,3.4,2.8,5.3c0.5,1.9,0.6,3.8,0.3,5.7c-0.3,2-1,3.6-1.9,4.8c-0.9,1.2-2.1,2.5-3.5,3.6
				l5.6,0.7l12.6,2.2l-1.4,8.1l-50-8.8l1.2-6.7l3.9,0.1l0-0.3c-1.1-1.5-1.9-3.2-2.5-5C1442.8,895.1,1442.6,893.3,1443,891.4z
				 M1449.3,894.5c-0.5,2.6,0.4,5.3,2.6,8l16.2,2.8c1.3-1,2.3-2.1,2.9-3.2c0.6-1.1,1-2.2,1.3-3.4c0.4-2.3-0.3-4.4-2-6.3
				c-1.7-1.9-4.4-3.2-8.1-3.8c-3.8-0.7-6.8-0.5-9,0.5C1451.1,890.2,1449.8,892,1449.3,894.5z"/>
		</g>
	</g>
	<g class="st10">
		<g>
			<path class="st11" d="M877.4,1493.7l-7.5-46.4l14.6-2.3c2.6-0.4,5-0.6,7.2-0.4s4.3,0.6,6.1,1.5c1.8,0.9,3.3,2.2,4.5,3.8
				c1.2,1.7,2,3.9,2.4,6.6c0.4,2.6,0.3,4.9-0.3,6.9c-0.6,2-1.6,3.8-3,5.3c-1.4,1.5-3.1,2.7-5.2,3.7c-2.1,0.9-4.3,1.6-6.8,2l-6.7,1.1
				l2.7,17L877.4,1493.7z M881.8,1468.8l6-1c6.8-1.1,9.8-4.5,8.9-10.1c-0.5-2.9-1.7-4.8-3.6-5.6s-4.7-1-8.1-0.4l-5.7,0.9
				L881.8,1468.8z"/>
			<path class="st11" d="M917.9,1486.8l-7.3-34.5l6.7-1.4l1.8,6l0.3-0.1c0.7-2.5,1.9-4.5,3.3-6.1s3.1-2.5,5-2.9
				c1.6-0.3,3-0.4,4.1-0.1l0.1,7.3c-0.6-0.1-1.2-0.1-1.8-0.1c-0.5,0-1.2,0.1-1.9,0.3c-1.4,0.3-2.7,1.1-4,2.5
				c-1.3,1.4-2.2,3.5-2.7,6.3l4.4,21.1L917.9,1486.8z"/>
			<path class="st11" d="M957.6,1478.6c-2.1,0.5-4.3,0.7-6.4,0.4c-2.2-0.3-4.2-1-6.1-2.1c-1.9-1.1-3.6-2.7-5-4.7
				c-1.5-2-2.5-4.4-3.3-7.2c-0.7-2.8-0.9-5.5-0.6-7.9c0.3-2.5,1-4.6,2.1-6.6c1.1-1.9,2.5-3.5,4.3-4.8c1.7-1.3,3.7-2.2,5.8-2.8
				c2.1-0.5,4.3-0.7,6.5-0.4c2.2,0.3,4.2,1,6.1,2.2s3.6,2.7,5,4.7c1.5,2,2.6,4.4,3.3,7.2c0.7,2.8,0.9,5.5,0.6,7.9
				c-0.3,2.5-1,4.6-2.1,6.6c-1.1,1.9-2.5,3.5-4.3,4.8C961.7,1477.1,959.8,1478,957.6,1478.6z M955.9,1472c2.5-0.6,4.2-2.2,5.1-4.6
				c0.9-2.4,0.9-5.4,0-8.8c-0.9-3.5-2.3-6.1-4.3-7.8c-2-1.7-4.2-2.2-6.7-1.6c-2.5,0.6-4.2,2.2-5.1,4.6c-0.9,2.4-0.9,5.4,0,8.9
				c0.9,3.4,2.3,6,4.2,7.7C951.2,1472.1,953.4,1472.7,955.9,1472z"/>
			<path class="st11" d="M973.5,1430.2c-1.4,0.4-2.7,0.3-3.8-0.2c-1.2-0.5-2-1.5-2.4-2.8c-0.4-1.3-0.3-2.6,0.4-3.7
				c0.7-1.1,1.7-1.9,3.1-2.3c1.4-0.4,2.7-0.4,3.9,0.2c1.2,0.6,2,1.5,2.4,2.8c0.4,1.3,0.3,2.6-0.4,3.7
				C976,1429,974.9,1429.8,973.5,1430.2z M983,1486.1c-1.2,0.4-2.3,0.6-3.3,0.7c-0.9,0.1-1.8,0.1-2.5,0.1l-0.3-6.4c0.5,0,1,0,1.5,0
				c0.5,0,1-0.1,1.5-0.3c1.5-0.5,2.4-1.3,2.6-2.5c0.2-1.2,0-2.8-0.6-4.7l-10.7-35.6l8-2.4l10.7,35.5c0.5,1.8,0.9,3.5,0.9,5.1
				c0.1,1.6-0.1,3.1-0.6,4.5c-0.5,1.4-1.4,2.6-2.5,3.6S985,1485.5,983,1486.1z"/>
			<path class="st11" d="M1013.9,1461.6c-2.3,0.8-4.6,1.1-6.9,1c-2.3-0.1-4.4-0.7-6.4-1.6c-2-1-3.8-2.4-5.4-4.3
				c-1.6-1.9-2.8-4.2-3.8-6.9c-0.9-2.7-1.3-5.3-1.2-7.8c0.1-2.5,0.6-4.7,1.5-6.7s2.2-3.7,3.7-5.2c1.6-1.5,3.3-2.5,5.3-3.2
				c2.3-0.8,4.4-1.1,6.4-0.9c2,0.2,3.8,0.8,5.4,1.8s3.1,2.4,4.3,4.1c1.3,1.7,2.3,3.8,3.1,6.1c0.3,0.8,0.5,1.5,0.6,2.2
				c0.2,0.7,0.3,1.3,0.3,1.7l-21.2,7.3c1.4,2.9,3.2,4.8,5.5,5.8c2.3,1,4.8,1,7.5,0.1c1.4-0.5,2.7-1.2,3.8-2c1.1-0.9,2.1-1.9,3.1-3.1
				l4.3,4c-1.2,1.6-2.7,3.1-4.4,4.4C1017.9,1459.8,1016,1460.9,1013.9,1461.6z M997.9,1444l14.8-5.1c-0.9-2.6-2.1-4.4-3.8-5.5
				c-1.6-1.1-3.6-1.2-5.9-0.4c-2,0.7-3.5,2-4.5,3.9C997.5,1438.8,997.3,1441.1,997.9,1444z"/>
			<path class="st11" d="M1047.7,1448.9c-2.2,0.9-4.5,1.3-6.7,1.4c-2.2,0-4.4-0.4-6.4-1.3c-2-0.9-3.8-2.3-5.5-4.1
				c-1.7-1.8-3-4.1-4.1-6.8c-1.1-2.7-1.6-5.3-1.6-7.8c0-2.5,0.5-4.8,1.5-6.8c0.9-2.1,2.2-3.9,3.9-5.5c1.7-1.6,3.6-2.8,5.8-3.7
				c2.1-0.9,4.1-1.2,5.9-1.1c1.8,0.1,3.5,0.4,5.1,1l-1.7,6.5c-1.2-0.4-2.3-0.6-3.3-0.7s-2.1,0.1-3.1,0.5c-2.7,1.1-4.4,2.9-5.3,5.6
				c-0.9,2.6-0.6,5.6,0.7,9c1.3,3.3,3.2,5.6,5.6,6.9c2.4,1.3,4.9,1.5,7.5,0.5c1.3-0.5,2.4-1.3,3.3-2.3c0.9-1,1.7-2.1,2.3-3.2
				l5.2,3.8c-1,2-2.3,3.6-3.9,5C1051.3,1447.1,1049.6,1448.2,1047.7,1448.9z"/>
			<path class="st11" d="M1075.4,1437.1c-1.9,0.8-3.6,1.3-5.1,1.3s-3-0.3-4.2-1c-1.3-0.7-2.4-1.6-3.4-2.9c-1-1.3-1.9-2.8-2.7-4.5
				l-6.8-15.4l-4.6,2l-2.5-5.6l4.8-2.6l-3-9.2l6.3-2.8l3.9,8.8l8.2-3.7l2.7,6l-8.2,3.7l6.8,15.4c1.7,3.8,4,5,7,3.6
				c0.6-0.3,1.1-0.6,1.7-1s1-0.8,1.4-1.2l3.8,5c-0.7,0.7-1.6,1.4-2.6,2.2C1077.8,1435.8,1076.7,1436.5,1075.4,1437.1z"/>
			<path class="st11" d="M1100.4,1424.4l-21.9-41.6l13.1-6.9c2.3-1.2,4.5-2.1,6.7-2.7c2.2-0.6,4.3-0.8,6.3-0.5c2,0.3,3.8,1,5.5,2.2
				c1.7,1.2,3.1,3,4.4,5.4c1.2,2.3,1.9,4.5,1.9,6.6c0.1,2.1-0.3,4.1-1.1,6c-0.8,1.9-2.1,3.6-3.7,5.1c-1.6,1.5-3.6,2.9-5.8,4.1
				l-6,3.2l8,15.3L1100.4,1424.4z M1096.6,1399.3l5.4-2.8c6.1-3.2,7.8-7.3,5.2-12.4c-1.4-2.6-3.1-4-5.2-4.2
				c-2.1-0.2-4.7,0.6-7.8,2.2l-5.1,2.7L1096.6,1399.3z"/>
			<path class="st11" d="M1143.8,1401.5c-2.6,1.5-4.8,1.8-6.7,0.8c-1.9-0.9-3.7-2.7-5.2-5.4l-21-36l7.1-4.2l21.2,36.4
				c0.5,0.9,1,1.4,1.6,1.5c0.5,0.2,1,0.1,1.4-0.1c0.2-0.1,0.3-0.2,0.5-0.3c0.1-0.1,0.3-0.3,0.6-0.5l4,4.8
				C1146.5,1399.7,1145.4,1400.6,1143.8,1401.5z"/>
			<path class="st11" d="M1160.8,1391.2c-2.6,1.7-5.3,2.2-7.9,1.7c-2.6-0.6-4.8-2.2-6.5-4.8c-1-1.6-1.6-3.2-1.7-4.9
				c-0.1-1.7,0.3-3.4,1.1-5.2c0.9-1.8,2.2-3.7,4-5.7c1.8-2,4.2-4.1,7-6.4c-0.5-0.7-1.1-1.4-1.7-2c-0.6-0.6-1.3-1-2.1-1.3
				s-1.6-0.3-2.5-0.2c-0.9,0.1-1.8,0.5-2.8,1.2c-1.5,0.9-2.7,2.1-3.7,3.6c-1,1.5-2,3-2.8,4.7l-5.5-3.1c1-2.1,2.3-4.2,3.8-6.3
				c1.6-2.1,3.6-3.9,5.9-5.4c3.7-2.4,7.2-3,10.4-2c3.2,1,6.2,3.6,8.8,7.8l11.2,17.6l-5.8,3.7l-2.6-3l-0.2,0.2
				c-0.6,2-1.4,3.8-2.5,5.6S1162.6,1390.1,1160.8,1391.2z M1159.6,1384.3c1.2-0.8,2.1-1.8,2.8-3c0.6-1.2,1.2-2.7,1.6-4.4l-4.2-6.7
				c-1.9,1.5-3.4,2.9-4.5,4.2c-1.1,1.3-1.9,2.4-2.5,3.5c-0.5,1-0.8,2-0.7,2.9c0,0.9,0.3,1.7,0.8,2.4c0.8,1.3,1.9,2,3.1,2.1
				C1157.1,1385.5,1158.3,1385.1,1159.6,1384.3z"/>
			<path class="st11" d="M1184.4,1374.9l-20.5-28.7l5.6-4l3.2,3.5l0.2-0.2c0.4-2.2,1-4.2,1.9-6.2c0.9-2,2.3-3.7,4.3-5.1
				c3.1-2.2,6-2.8,8.8-1.8c2.8,1,5.5,3.3,8.1,7l12.9,18l-6.7,4.8l-12.2-17.1c-1.7-2.4-3.2-3.8-4.6-4.3c-1.4-0.5-2.9-0.1-4.5,1
				c-1.2,0.9-2.1,2-2.7,3.3c-0.5,1.3-1,2.9-1.3,5l14.3,20.1L1184.4,1374.9z"/>
			<path class="st11" d="M1225.3,1345.7c-1.9,1.5-4.1,2.6-6.5,3.4c-2.4,0.7-4.8,1.1-7,1.1l-0.3-6.6c2,0,3.8-0.2,5.5-0.6
				c1.7-0.4,3.2-1.2,4.6-2.3c1.5-1.2,2.4-2.4,2.6-3.6s0-2.3-0.8-3.2c-0.4-0.6-1-0.9-1.7-1.1c-0.7-0.2-1.4-0.2-2.3-0.1
				s-1.7,0.3-2.7,0.6s-1.9,0.6-2.8,0.8c-1.2,0.4-2.4,0.7-3.7,1c-1.3,0.3-2.6,0.4-3.8,0.3c-1.2-0.1-2.4-0.3-3.6-0.8
				c-1.1-0.5-2.2-1.3-3.1-2.5c-1.9-2.4-2.6-5.1-2-8.1s2.4-5.7,5.6-8.1c1.9-1.5,3.9-2.5,6-3.1c2.1-0.5,4-0.8,5.8-0.9l0.1,6.3
				c-1.5,0.1-3,0.3-4.3,0.6c-1.3,0.4-2.6,1-3.6,1.8c-1.4,1.1-2.2,2.2-2.4,3.3c-0.2,1.1,0,2.1,0.7,3c0.4,0.6,1,0.9,1.6,1.1
				c0.6,0.1,1.3,0.2,2.1,0c0.8-0.1,1.6-0.3,2.5-0.6c0.9-0.3,1.8-0.6,2.8-0.9c1.2-0.4,2.5-0.8,3.7-1.1c1.3-0.3,2.6-0.5,3.8-0.4
				c1.3,0,2.5,0.3,3.7,0.9c1.2,0.6,2.3,1.5,3.3,2.7c1,1.2,1.6,2.5,1.9,3.9c0.3,1.4,0.4,2.8,0.1,4.3c-0.3,1.5-0.9,3-1.9,4.5
				C1228.4,1342.9,1227,1344.4,1225.3,1345.7z"/>
			<path class="st11" d="M1247.8,1326.5l-20.2-45.1l7.2-6.6l42.9,24.5l-6.5,5.9l-11.3-7l-11.7,10.6l5.8,11.9L1247.8,1326.5z
				 M1242.6,1297.4l2.6,5.4l8.9-8.1l-5.1-3.1c-2.2-1.3-4.5-2.7-6.8-4.2c-2.3-1.5-4.5-3-6.8-4.4l-0.2,0.2c1.3,2.4,2.5,4.8,3.8,7.2
				C1240.3,1292.7,1241.5,1295,1242.6,1297.4z"/>
			<path class="st11" d="M1291.4,1305.3l-35-34.6l4.8-4.9l3.1,2.2l0.2-0.2c0.2-1.9,0.5-3.9,1.2-5.8c0.6-1.9,1.6-3.6,3-5
				c1.5-1.6,3.2-2.7,5-3.3c1.8-0.6,3.7-0.8,5.6-0.5c2,0.3,4,0.9,6,2c2,1.1,4,2.6,5.9,4.5c2.1,2.1,3.8,4.3,4.9,6.6
				c1.1,2.3,1.7,4.5,1.9,6.6c0.2,2.1-0.1,4.1-0.7,6c-0.7,1.9-1.7,3.6-3.1,5c-1.1,1.1-2.4,1.9-3.9,2.6c-1.6,0.6-3.3,1-5.2,1.2l4.3,4
				l7.9,7.8L1291.4,1305.3z M1288,1280.4c1.6-1.7,2.3-3.8,2-6.3c-0.3-2.6-1.9-5.2-4.8-8.1c-2.5-2.5-4.9-4-7.1-4.5
				c-2.2-0.5-4.3,0.2-6.2,2.1c-1.7,1.8-2.6,4.5-2.6,8.3l11.7,11.6c1.7-0.1,3.1-0.5,4.3-1C1286.3,1281.8,1287.2,1281.2,1288,1280.4z"
				/>
			<path class="st11" d="M1320.3,1275.5l-36.9-32.6l4.5-5.1l3.2,2l0.2-0.2c0-1.9,0.3-3.9,0.9-5.9c0.5-2,1.4-3.7,2.7-5.2
				c1.5-1.7,3.1-2.8,4.8-3.6c1.8-0.7,3.6-1,5.6-0.9c2,0.1,4,0.7,6.1,1.7c2.1,1,4.1,2.4,6.2,4.2c2.3,2,4,4.1,5.2,6.3
				c1.2,2.2,2,4.3,2.3,6.5c0.3,2.1,0.1,4.1-0.4,6.1c-0.6,1.9-1.5,3.6-2.8,5.1c-1,1.2-2.3,2.1-3.8,2.8c-1.5,0.7-3.2,1.2-5.1,1.4
				l4.6,3.7l8.3,7.3L1320.3,1275.5z M1315.5,1250.8c1.6-1.8,2.1-3.9,1.6-6.4c-0.5-2.5-2.2-5.1-5.3-7.8c-2.7-2.3-5.1-3.7-7.4-4.1
				c-2.3-0.4-4.3,0.4-6.1,2.4c-1.6,1.9-2.4,4.7-2.2,8.4l12.3,10.9c1.7-0.2,3.1-0.7,4.2-1.3
				C1313.9,1252.3,1314.8,1251.6,1315.5,1250.8z"/>
			<path class="st11" d="M1336.3,1235.6l-27.5-22.1l4.3-5.3l5.2,3.5l0.2-0.2c-1-2.4-1.4-4.7-1.3-6.8c0.2-2.1,0.8-3.9,2-5.4
				c1-1.3,2.1-2.2,3.1-2.7l4.7,5.6c-0.5,0.4-1,0.7-1.4,1.1c-0.4,0.4-0.8,0.8-1.3,1.4c-0.9,1.1-1.4,2.6-1.5,4.4
				c-0.1,1.9,0.5,4.1,1.9,6.6l16.8,13.5L1336.3,1235.6z"/>
			<path class="st11" d="M1361.8,1204.1c-1.3,1.8-2.9,3.2-4.7,4.4c-1.8,1.1-3.9,1.9-6.1,2.2c-2.2,0.3-4.5,0.2-6.9-0.5
				c-2.4-0.6-4.8-1.8-7.1-3.5c-2.4-1.7-4.2-3.6-5.5-5.7c-1.3-2.1-2.2-4.2-2.5-6.4c-0.4-2.2-0.3-4.3,0.2-6.5c0.5-2.1,1.4-4.1,2.7-5.8
				c1.3-1.8,2.9-3.2,4.8-4.4c1.9-1.1,3.9-1.9,6.1-2.2s4.5-0.2,6.9,0.5c2.4,0.6,4.8,1.8,7.1,3.5c2.4,1.7,4.2,3.6,5.5,5.8
				c1.3,2.1,2.1,4.3,2.5,6.4s0.3,4.3-0.3,6.4C1364,1200.4,1363.1,1202.4,1361.8,1204.1z M1356.4,1200.2c1.5-2.1,1.9-4.4,1-6.8
				c-0.8-2.5-2.7-4.7-5.6-6.8c-2.9-2.1-5.6-3.2-8.2-3.3c-2.6-0.1-4.7,1-6.2,3c-1.5,2.1-1.9,4.4-1,6.8c0.9,2.4,2.7,4.7,5.6,6.8
				c2.9,2.1,5.6,3.2,8.2,3.3C1352.8,1203.3,1354.8,1202.2,1356.4,1200.2z"/>
			<path class="st11" d="M1379.8,1176.9l-36.2-9.1l4.6-7l18.4,5.4c1.7,0.5,3.4,1.1,5.2,1.6c1.8,0.6,3.5,1.1,5.3,1.7l0.2-0.2
				c-1.2-1.4-2.5-2.8-3.7-4.2c-1.2-1.4-2.4-2.8-3.6-4.1l-12.2-14.7l4.4-6.7l22.9,29.4L1379.8,1176.9z"/>
			<path class="st11" d="M1403,1141.3c-1.2,2.1-2.8,3.9-4.5,5.2c-1.8,1.4-3.8,2.4-5.9,2.9c-2.2,0.6-4.5,0.6-6.9,0.3
				c-2.4-0.4-4.9-1.3-7.4-2.8c-2.5-1.5-4.5-3.2-6-5.1c-1.5-1.9-2.6-4-3.2-6.1c-0.6-2.1-0.8-4.2-0.5-6.3s0.9-4.1,1.9-5.9
				c1.2-2.1,2.6-3.7,4.3-4.8c1.6-1.2,3.4-1.9,5.3-2.2c1.9-0.3,3.9-0.2,6,0.3c2.1,0.5,4.2,1.4,6.3,2.6c0.7,0.4,1.3,0.8,1.9,1.3
				c0.6,0.4,1,0.8,1.4,1.1l-11.4,19.3c2.9,1.3,5.6,1.5,8,0.8c2.4-0.7,4.3-2.3,5.8-4.8c0.8-1.3,1.3-2.7,1.6-4
				c0.3-1.4,0.4-2.8,0.3-4.3l5.9,0.2c0.1,2-0.1,4.1-0.5,6.2C1404.9,1137.4,1404.1,1139.4,1403,1141.3z M1379.4,1138.4l7.9-13.5
				c-2.4-1.4-4.5-2-6.4-1.7c-1.9,0.2-3.5,1.4-4.8,3.5c-1.1,1.8-1.4,3.8-0.9,5.9C1375.7,1134.7,1377.1,1136.6,1379.4,1138.4z"/>
			<path class="st11" d="M1419.4,1111.7c-2,4-5.1,6.4-9.2,7.2c-4.1,0.8-8.7-0.1-13.9-2.8c-2.6-1.3-4.7-2.9-6.3-4.7
				c-1.7-1.8-2.9-3.7-3.6-5.6s-1.1-3.9-1.1-5.9c0.1-2,0.5-3.8,1.4-5.5c0.9-1.8,2-3.1,3.3-4.1c1.3-0.9,2.7-1.7,4.4-2.4l-5.2-2.4
				l-11.4-5.9l3.8-7.3l45.1,23.3l-3.1,6.1l-3.6-1.2l-0.1,0.3c0.6,1.7,0.8,3.6,0.9,5.5C1420.7,1108.1,1420.3,1110,1419.4,1111.7z
				 M1414.2,1106.7c1.2-2.3,1.2-5.1-0.1-8.4l-14.6-7.6c-1.6,0.6-2.8,1.3-3.7,2.2c-0.9,0.8-1.7,1.8-2.2,2.9c-1.1,2-1.1,4.2,0,6.6
				c1.1,2.3,3.2,4.4,6.6,6.1c3.4,1.8,6.3,2.5,8.7,2.2C1411.3,1110.3,1413.1,1109,1414.2,1106.7z"/>
		</g>
	</g>
	<g class="st10">
		<g>
			<path class="st11" d="M186.7,1198.4c-1.8-2.6-3.1-5.4-3.9-8.5s-0.9-6.2-0.4-9.3l7.5,0.7c-0.3,2.3-0.2,4.6,0.2,6.9
				c0.5,2.3,1.3,4.4,2.6,6.1c1.6,2.2,3.2,3.5,4.9,4c1.7,0.5,3.3,0.2,4.8-0.9c0.8-0.6,1.3-1.2,1.7-1.9c0.3-0.7,0.5-1.4,0.6-2.3
				c0-0.8,0-1.7-0.2-2.7s-0.4-2-0.6-3.1l-1.5-6.9c-0.3-1.2-0.5-2.5-0.5-3.8c-0.1-1.3,0-2.7,0.3-4c0.3-1.3,0.8-2.6,1.6-3.8
				c0.8-1.2,1.9-2.3,3.3-3.4c1.5-1.1,3.2-1.8,4.9-2.1c1.8-0.3,3.5-0.2,5.3,0.2c1.8,0.4,3.5,1.2,5.2,2.4c1.7,1.2,3.2,2.7,4.5,4.6
				c1.6,2.2,2.7,4.7,3.3,7.4c0.6,2.7,0.7,5.3,0.3,7.8l-6.8-0.3c0.1-2,0-3.8-0.4-5.6c-0.4-1.7-1.1-3.4-2.3-5.1
				c-1.3-1.8-2.8-3-4.3-3.5c-1.6-0.5-3.1-0.3-4.5,0.7c-0.7,0.5-1.3,1.1-1.5,1.9c-0.3,0.7-0.4,1.5-0.4,2.3c0,0.9,0.1,1.8,0.3,2.8
				c0.2,1,0.4,2,0.7,3l1.6,6.7c0.3,1.5,0.5,2.9,0.6,4.3c0,1.4-0.1,2.7-0.4,4s-0.9,2.5-1.7,3.6c-0.8,1.2-1.9,2.2-3.3,3.2
				c-1.6,1.1-3.2,1.9-5,2.2c-1.8,0.4-3.7,0.3-5.5-0.1c-1.9-0.4-3.7-1.3-5.6-2.6C189.9,1202.3,188.2,1200.6,186.7,1198.4z"/>
			<path class="st11" d="M210.6,1230c-1.5-1.9-2.6-3.9-3.2-6s-0.8-4.3-0.6-6.5c0.3-2.2,1.1-4.3,2.3-6.4s3-4.1,5.3-5.9
				c2.3-1.8,4.6-3.1,7-3.8c2.4-0.7,4.7-0.9,7-0.6c2.3,0.3,4.4,1,6.4,2.2c2,1.1,3.7,2.6,5.2,4.5c1.4,1.8,2.4,3.6,2.8,5.4
				c0.4,1.8,0.6,3.5,0.6,5.2l-6.7,0.2c0-1.3-0.1-2.4-0.3-3.4c-0.2-1-0.7-2-1.4-2.8c-1.8-2.2-4.1-3.4-6.8-3.5c-2.8-0.1-5.6,1-8.4,3.3
				c-2.8,2.2-4.5,4.7-5,7.4c-0.6,2.7,0,5.1,1.7,7.3c0.9,1.1,1.9,1.9,3.1,2.5c1.2,0.6,2.5,1,3.7,1.3l-2.2,6c-2.2-0.4-4.2-1.2-6-2.3
				C213.4,1232.9,211.9,1231.6,210.6,1230z"/>
			<path class="st11" d="M230.7,1253.9c-1.5-1.7-2.5-3.5-3.2-5.6c-0.7-2-1-4.2-0.8-6.4c0.2-2.2,0.8-4.4,1.9-6.6
				c1.1-2.2,2.8-4.3,5-6.2c2.2-1.9,4.5-3.3,6.8-4.1c2.3-0.8,4.6-1.2,6.8-1.1c2.2,0.1,4.3,0.7,6.3,1.6s3.7,2.3,5.1,3.9
				c1.5,1.7,2.5,3.5,3.2,5.6c0.7,2.1,1,4.2,0.8,6.4s-0.8,4.4-1.9,6.6c-1.1,2.2-2.8,4.3-5,6.2c-2.2,1.9-4.5,3.3-6.8,4.1
				c-2.3,0.8-4.6,1.2-6.8,1.1c-2.2-0.1-4.3-0.7-6.2-1.7C233.9,1256.9,232.2,1255.6,230.7,1253.9z M235.8,1249.5
				c1.7,1.9,3.8,2.8,6.4,2.5c2.6-0.3,5.2-1.6,7.9-3.9c2.7-2.4,4.4-4.8,5-7.3c0.6-2.5,0.1-4.8-1.6-6.7c-1.7-1.9-3.8-2.8-6.4-2.5
				c-2.6,0.3-5.2,1.6-7.9,4c-2.7,2.3-4.3,4.8-5,7.3C233.6,1245.3,234.1,1247.5,235.8,1249.5z"/>
			<path class="st11" d="M238.3,1281.9l35.2-34.4l4.8,4.9l-2.3,3l0.2,0.2c1.9,0.2,3.9,0.6,5.8,1.3c1.9,0.7,3.6,1.7,4.9,3.1
				c1.5,1.6,2.6,3.3,3.2,5.1c0.6,1.8,0.7,3.7,0.4,5.6c-0.3,2-1,3.9-2.1,5.9c-1.1,2-2.7,3.9-4.6,5.8c-2.2,2.1-4.4,3.7-6.7,4.8
				c-2.3,1.1-4.5,1.7-6.6,1.8c-2.1,0.1-4.1-0.2-6-0.9c-1.9-0.7-3.5-1.7-4.9-3.2c-1.1-1.1-1.9-2.4-2.5-4c-0.6-1.6-0.9-3.3-1.1-5.2
				l-4.1,4.3l-7.9,7.7L238.3,1281.9z M263.3,1279c1.6,1.7,3.7,2.4,6.3,2.1c2.6-0.3,5.3-1.8,8.2-4.7c2.5-2.5,4.1-4.8,4.6-7.1
				c0.6-2.2-0.1-4.3-2-6.2c-1.7-1.8-4.5-2.7-8.3-2.8l-11.8,11.5c0.1,1.7,0.4,3.1,1,4.3C261.9,1277.3,262.5,1278.2,263.3,1279z"/>
			<path class="st11" d="M287.5,1311.8c-1.8-1.7-3.2-3.5-4.2-5.5s-1.5-4.2-1.6-6.4c-0.1-2.2,0.3-4.5,1.2-6.8
				c0.9-2.3,2.3-4.5,4.3-6.6c1.9-2.1,4-3.7,6.3-4.8c2.2-1.1,4.4-1.7,6.6-1.8c2.2-0.1,4.3,0.1,6.3,0.8s3.8,1.7,5.3,3.1
				c1.8,1.6,3,3.3,3.8,5.2c0.8,1.8,1.1,3.7,1,5.6c-0.1,1.9-0.6,3.8-1.6,5.8c-0.9,1.9-2.2,3.8-3.9,5.6c-0.6,0.6-1.1,1.1-1.6,1.6
				s-1,0.8-1.4,1.1l-16.5-15.2c-1.9,2.6-2.7,5.1-2.5,7.6c0.2,2.5,1.4,4.7,3.5,6.7c1.1,1,2.3,1.8,3.6,2.4c1.3,0.6,2.7,1,4.2,1.2
				l-1.4,5.7c-2-0.3-4-0.9-6-1.8C291,1314.6,289.1,1313.4,287.5,1311.8z M295.3,1289.4l11.5,10.6c1.8-2,2.9-4,3.1-5.9
				c0.2-1.9-0.6-3.7-2.4-5.4c-1.6-1.4-3.4-2.1-5.6-2.1S297.5,1287.5,295.3,1289.4z"/>
			<path class="st11" d="M329.3,1347.2c-2.3-1.8-4.2-4-5.5-6.4c-1.4-2.4-2.2-5-2.4-7.8c-0.2-2.8,0.2-5.7,1.2-8.8s2.7-6.1,5.1-9.1
				c2.4-3,5-5.3,7.7-7c2.8-1.7,5.6-2.7,8.4-3.2c2.8-0.4,5.6-0.3,8.3,0.5c2.7,0.8,5.3,2.1,7.6,3.9c2.3,1.8,4,4,5.1,6.3
				s1.7,4.6,1.9,6.8l-6.8,1.5c-0.2-1.8-0.6-3.4-1.3-4.8c-0.7-1.5-1.7-2.8-3.1-3.9c-1.5-1.2-3.1-2-4.9-2.4c-1.8-0.4-3.5-0.4-5.4,0.1
				c-1.8,0.4-3.7,1.2-5.5,2.5s-3.5,2.9-5.2,5c-3.3,4.2-5,8.2-5.1,12c-0.1,3.8,1.5,7,4.6,9.4c1.7,1.3,3.4,2.1,5.2,2.4
				c1.8,0.3,3.7,0.3,5.7,0l0.2,6.9c-2.9,0.5-5.6,0.5-8.3-0.1C334.2,1350.4,331.6,1349.1,329.3,1347.2z"/>
			<path class="st11" d="M358.7,1369.1c-1.8-1.3-3.3-2.8-4.5-4.6c-1.2-1.8-1.9-3.8-2.3-6s-0.3-4.5,0.3-6.9c0.6-2.4,1.7-4.8,3.4-7.2
				c1.7-2.4,3.6-4.3,5.6-5.6c2.1-1.4,4.2-2.2,6.4-2.6c2.2-0.4,4.3-0.4,6.5,0.1s4.1,1.3,5.9,2.6c1.8,1.3,3.3,2.8,4.5,4.7
				c1.2,1.9,1.9,3.9,2.3,6.1c0.3,2.2,0.2,4.5-0.3,6.9c-0.6,2.4-1.7,4.8-3.4,7.2c-1.7,2.4-3.6,4.3-5.7,5.6c-2.1,1.3-4.2,2.2-6.4,2.6
				c-2.2,0.4-4.3,0.4-6.4-0.2C362.4,1371.3,360.5,1370.4,358.7,1369.1z M362.6,1363.6c2.1,1.5,4.4,1.8,6.8,0.9
				c2.4-0.9,4.7-2.8,6.7-5.7c2.1-2.9,3.1-5.7,3.1-8.3c0-2.6-1-4.6-3.1-6.1c-2.1-1.5-4.4-1.8-6.8-0.9c-2.4,0.9-4.7,2.8-6.7,5.8
				c-2,2.9-3.1,5.6-3.1,8.2C359.4,1360,360.4,1362.1,362.6,1363.6z"/>
			<path class="st11" d="M380.1,1383.1l18.3-30.2l5.8,3.5l-2,4.4l0.2,0.1c2.1-0.6,4.2-0.9,6.2-0.9c2.1,0,4,0.5,5.9,1.7
				c2.2,1.3,3.7,2.9,4.5,4.6c0.8,1.8,1,3.7,0.6,5.8c2.4-0.7,4.7-1.1,6.8-1.2c2.2-0.1,4.2,0.5,6.2,1.6c3.2,1.9,4.9,4.4,5.2,7.4
				c0.3,3-0.8,6.4-3.1,10.3l-11.5,18.9l-7.1-4.3l10.9-18c1.5-2.5,2.2-4.5,2.1-6c-0.1-1.5-1-2.7-2.5-3.6c-1.9-1.1-4.8-1.2-8.6-0.1
				l-12.8,21.1l-7.1-4.3l10.9-18c1.5-2.5,2.2-4.5,2.1-6c-0.1-1.5-1-2.7-2.6-3.7c-1.9-1.1-4.8-1.2-8.6-0.1l-12.8,21.1L380.1,1383.1z"
				/>
			<path class="st11" d="M426.4,1426.6l22.5-43.8l6.1,3.1l-1.2,3.6l0.3,0.1c1.9-0.4,3.9-0.6,5.9-0.6c2,0,3.9,0.5,5.7,1.4
				c2,1,3.5,2.3,4.6,3.8c1.1,1.5,1.9,3.3,2.2,5.2c0.3,2,0.3,4.1-0.2,6.3c-0.5,2.2-1.3,4.6-2.5,7c-1.4,2.7-3,4.9-4.8,6.6
				c-1.8,1.7-3.7,3-5.7,3.8c-2,0.8-4,1.2-6,1.1c-2-0.1-3.9-0.5-5.6-1.4c-1.4-0.7-2.6-1.7-3.6-3c-1.1-1.3-1.9-2.8-2.7-4.6l-2.5,5.3
				l-5.1,9.8L426.4,1426.6z M449.2,1415.9c2.1,1.1,4.3,1.1,6.6,0c2.3-1.1,4.4-3.4,6.3-7c1.6-3.2,2.3-5.9,2.2-8.2
				c-0.2-2.3-1.4-4.1-3.8-5.3c-2.2-1.1-5.1-1.1-8.7,0l-7.5,14.6c0.6,1.6,1.4,2.8,2.3,3.8C447.3,1414.7,448.2,1415.4,449.2,1415.9z"
				/>
			<path class="st11" d="M475.9,1436.4c-2.7-1.2-4.2-2.9-4.6-5c-0.3-2.1,0.1-4.6,1.4-7.3l17.5-37.8l7.5,3.5l-17.7,38.2
				c-0.4,0.9-0.5,1.6-0.4,2.2c0.2,0.5,0.5,0.9,0.9,1.1c0.2,0.1,0.3,0.2,0.5,0.2c0.2,0.1,0.4,0.1,0.7,0.2l-1.6,6.1
				C479,1437.6,477.5,1437.2,475.9,1436.4z"/>
			<path class="st11" d="M500.1,1446.9c-2.3-0.9-4.2-2.2-5.8-3.8c-1.6-1.6-2.9-3.4-3.7-5.5s-1.3-4.3-1.2-6.8c0.1-2.4,0.6-5,1.8-7.7
				c1.1-2.7,2.5-4.9,4.2-6.6c1.7-1.8,3.6-3.1,5.6-4c2-0.9,4.1-1.3,6.2-1.4c2.1,0,4.2,0.3,6.1,1.1c2.2,0.9,4,2.1,5.4,3.6
				c1.4,1.5,2.3,3.1,2.9,4.9c0.6,1.8,0.7,3.8,0.5,6c-0.2,2.1-0.8,4.3-1.7,6.6c-0.3,0.8-0.6,1.4-1,2.1c-0.3,0.6-0.6,1.1-0.9,1.5
				l-20.7-8.6c-0.9,3.1-0.8,5.7,0.3,8c1,2.3,2.9,4,5.6,5.1c1.4,0.6,2.8,0.9,4.2,1c1.4,0.1,2.8,0,4.3-0.3l0.6,5.9
				c-2,0.4-4,0.5-6.2,0.4C504.3,1448.3,502.2,1447.8,500.1,1446.9z M499.8,1423.1l14.5,6c1-2.5,1.3-4.7,0.8-6.6
				c-0.5-1.9-1.9-3.3-4.1-4.2c-1.9-0.8-3.9-0.8-6-0.1C503,1419,501.2,1420.6,499.8,1423.1z"/>
			<path class="st11" d="M530.9,1458.8c-1.9-0.7-3.5-1.6-4.6-2.7c-1.1-1.1-1.9-2.3-2.3-3.7c-0.4-1.4-0.6-2.8-0.4-4.4
				c0.2-1.6,0.6-3.3,1.2-5.1l5.8-15.8l-4.7-1.7l2.1-5.8l5.3,1.5l4.3-8.7l6.5,2.4l-3.3,9l8.4,3.1l-2.3,6.1l-8.4-3.1l-5.8,15.8
				c-1.4,3.9-0.6,6.4,2.5,7.5c0.6,0.2,1.2,0.4,1.9,0.5c0.7,0.1,1.3,0.1,1.9,0.1l-0.8,6.2c-1,0-2.1-0.1-3.4-0.3
				C533.4,1459.6,532.2,1459.3,530.9,1458.8z"/>
			<path class="st11" d="M556.8,1467.6c-2.3-0.7-4.4-1.8-6.1-3.3c-1.8-1.4-3.1-3.2-4.2-5.1s-1.6-4.2-1.8-6.6c-0.1-2.4,0.2-5,1.1-7.8
				c0.9-2.7,2.1-5.1,3.7-7c1.6-1.9,3.3-3.4,5.2-4.4c1.9-1,3.9-1.7,6.1-1.9c2.1-0.2,4.2,0,6.1,0.6c2.3,0.7,4.2,1.8,5.6,3.1
				c1.5,1.3,2.6,2.9,3.3,4.7c0.7,1.8,1,3.8,1,5.9c0,2.2-0.4,4.4-1.2,6.7c-0.2,0.8-0.5,1.5-0.8,2.2c-0.3,0.7-0.5,1.2-0.8,1.6
				l-21.4-6.8c-0.6,3.1-0.3,5.8,1,8c1.2,2.2,3.2,3.7,6,4.6c1.5,0.5,2.9,0.7,4.3,0.7c1.4,0,2.8-0.2,4.3-0.6l1.1,5.8
				c-1.9,0.5-4,0.8-6.2,0.9C561.1,1468.6,558.9,1468.3,556.8,1467.6z M554.5,1443.9l14.9,4.8c0.8-2.6,0.9-4.8,0.3-6.7
				c-0.6-1.8-2.1-3.1-4.5-3.9c-2-0.6-4-0.5-5.9,0.4C557.3,1439.5,555.7,1441.3,554.5,1443.9z"/>
		</g>
	</g>
	<g>
		<g>
			<path class="st11" d="M100.4,822.1l-47,2.1l-0.7-15.9c-0.1-2.4,0-4.7,0.4-6.9c0.4-2.1,1.1-4,2.1-5.6c1-1.6,2.4-2.8,4.1-3.8
				c1.7-1,3.9-1.5,6.5-1.6c3.6-0.2,6.5,0.6,8.8,2.2c2.3,1.6,4,3.8,5,6.6l19.1-12.1l0.4,9.3l-17.9,10.9l0.3,7.2l18.4-0.8L100.4,822.1
				z M75.1,814.9l-0.3-6.7c-0.1-3.2-0.9-5.6-2.3-7.3c-1.4-1.6-3.5-2.4-6.1-2.3c-2.7,0.1-4.6,1.1-5.6,2.8c-1,1.7-1.4,4.2-1.3,7.4
				l0.3,6.7L75.1,814.9z"/>
			<path class="st11" d="M100,768.4c0,2.4-0.5,4.7-1.4,6.8c-0.9,2.1-2.1,3.9-3.7,5.5c-1.6,1.6-3.6,2.8-5.8,3.6
				c-2.3,0.9-4.9,1.3-7.8,1.2c-2.9,0-5.5-0.5-7.7-1.5c-2.3-0.9-4.2-2.2-5.8-3.7S65,777,64.2,775c-0.8-2-1.2-4-1.2-6.1
				c0-2.4,0.5-4.5,1.3-6.3c0.8-1.8,2-3.3,3.5-4.5c1.5-1.2,3.3-2.1,5.4-2.7s4.3-0.9,6.8-0.8c0.8,0,1.6,0.1,2.3,0.1
				c0.7,0.1,1.3,0.2,1.7,0.3l-0.4,22.4c3.2-0.3,5.6-1.4,7.3-3.2c1.7-1.8,2.6-4.2,2.7-7c0-1.5-0.2-3-0.6-4.3c-0.4-1.3-1-2.6-1.8-3.9
				l5.2-2.7c1.1,1.7,2,3.6,2.6,5.6C99.7,764,100,766.2,100,768.4z M78,777.5l0.3-15.7c-2.7,0-4.9,0.5-6.5,1.7
				c-1.6,1.1-2.4,2.9-2.4,5.4c0,2.1,0.7,4,2.1,5.6S75.1,777,78,777.5z"/>
			<path class="st11" d="M100.9,740.8c-0.1,3-1.1,5-2.9,6.1c-1.8,1.1-4.3,1.6-7.3,1.5l-41.6-1.9l0.4-8.3l42.1,2c1,0,1.7-0.1,2.1-0.5
				c0.4-0.4,0.6-0.8,0.7-1.2c0-0.2,0-0.4,0-0.5c0-0.2,0-0.4-0.1-0.8l6.2-0.8C100.8,737.6,100.9,739,100.9,740.8z"/>
			<path class="st11" d="M102.6,716.4c-0.2,2.4-0.8,4.7-1.8,6.7c-1,2-2.4,3.8-4.1,5.2c-1.7,1.4-3.7,2.5-6.1,3.2
				c-2.3,0.7-5,0.9-7.9,0.7c-2.9-0.2-5.4-0.9-7.6-2c-2.2-1.1-4-2.5-5.5-4.1s-2.5-3.5-3.2-5.5c-0.7-2-1-4.1-0.8-6.1
				c0.2-2.4,0.8-4.5,1.8-6.2c1-1.7,2.2-3.2,3.8-4.3c1.6-1.1,3.4-1.9,5.5-2.3c2.1-0.4,4.4-0.6,6.8-0.4c0.8,0.1,1.6,0.2,2.3,0.3
				c0.7,0.1,1.3,0.3,1.7,0.4l-1.9,22.3c3.2-0.1,5.7-1,7.5-2.7c1.9-1.7,2.9-4,3.1-6.8c0.1-1.5,0-3-0.3-4.3c-0.3-1.4-0.9-2.7-1.6-4.1
				l5.4-2.4c1,1.8,1.7,3.7,2.2,5.8C102.6,712,102.8,714.2,102.6,716.4z M80,723.9l1.3-15.6c-2.7-0.2-4.9,0.2-6.6,1.2
				c-1.7,1-2.6,2.8-2.8,5.2c-0.2,2.1,0.4,4,1.8,5.7C75.1,722.1,77.2,723.3,80,723.9z"/>
			<path class="st11" d="M105.4,689.8c-0.4,3.1-1.7,5.5-3.8,7.1c-2.1,1.6-4.7,2.3-7.8,1.8c-1.9-0.3-3.4-0.9-4.8-1.8
				s-2.4-2.4-3.2-4.2c-0.8-1.8-1.4-4.1-1.8-6.8c-0.4-2.7-0.5-5.9-0.4-9.5c-0.9-0.1-1.8-0.1-2.7,0c-0.9,0.1-1.6,0.4-2.4,0.8
				s-1.3,1-1.8,1.8c-0.5,0.8-0.8,1.7-0.9,2.9c-0.2,1.7-0.1,3.4,0.3,5.2c0.4,1.7,1,3.4,1.8,5.1l-5.9,2.3c-1-2.1-1.7-4.4-2.3-7
				c-0.6-2.5-0.7-5.2-0.3-8c0.6-4.4,2.3-7.5,5.2-9.3c2.9-1.8,6.8-2.4,11.7-1.7l20.7,2.8l-0.9,6.8l-3.9,0.1l0,0.3
				c1.1,1.7,2,3.6,2.7,5.5C105.5,685.7,105.7,687.7,105.4,689.8z M99.4,686.3c0.2-1.4,0-2.8-0.5-4c-0.5-1.3-1.3-2.6-2.3-4.1
				l-7.8-1.1c0,2.4,0.1,4.5,0.3,6.1c0.3,1.7,0.6,3.1,1.1,4.1c0.5,1.1,1,1.9,1.7,2.4c0.7,0.5,1.5,0.9,2.3,1c1.6,0.2,2.8-0.1,3.6-1
				C98.6,688.9,99.2,687.8,99.4,686.3z"/>
			<path class="st11" d="M111,654.1c-0.4,2.4-1.3,4.7-2.7,6.9c-1.3,2.2-2.9,4-4.5,5.4l-4.5-4.8c1.5-1.3,2.7-2.7,3.7-4.1
				c1-1.4,1.6-3,1.9-4.8c0.3-1.9,0.2-3.3-0.4-4.4c-0.6-1-1.5-1.7-2.8-1.9c-0.7-0.1-1.4,0-2,0.3c-0.6,0.3-1.2,0.8-1.8,1.4
				c-0.6,0.6-1.1,1.4-1.6,2.2c-0.5,0.8-1,1.7-1.6,2.5c-0.6,1.1-1.3,2.1-2.1,3.2c-0.8,1.1-1.7,2-2.6,2.8s-2,1.4-3.2,1.8
				c-1.2,0.4-2.5,0.5-3.9,0.2c-3.1-0.6-5.4-2.1-6.9-4.8c-1.5-2.6-1.9-5.9-1.2-9.8c0.4-2.4,1.3-4.5,2.5-6.3c1.2-1.8,2.5-3.3,3.8-4.5
				l4.3,4.7c-1.1,1.1-2.1,2.2-2.8,3.3c-0.8,1.2-1.3,2.4-1.5,3.8c-0.3,1.7-0.2,3.1,0.4,4.1c0.6,1,1.4,1.5,2.5,1.7
				c0.7,0.1,1.3,0,1.9-0.3c0.6-0.3,1.1-0.8,1.6-1.4c0.5-0.6,1-1.3,1.5-2.1c0.5-0.8,1-1.7,1.5-2.5c0.6-1.1,1.3-2.2,2.1-3.3
				c0.8-1.1,1.6-2,2.6-2.8c1-0.8,2.1-1.4,3.4-1.8c1.3-0.4,2.7-0.4,4.3-0.1c1.5,0.3,2.9,0.8,4,1.7c1.2,0.8,2.2,1.9,2.9,3.2
				c0.8,1.3,1.3,2.9,1.5,4.7C111.4,649.9,111.4,651.9,111,654.1z"/>
			<path class="st11" d="M117.9,620.8c-0.6,2.4-1.5,4.5-2.8,6.4c-1.3,1.9-2.9,3.4-4.8,4.6s-4.1,1.9-6.5,2.3s-5,0.2-7.9-0.5
				c-2.8-0.6-5.2-1.7-7.3-3.1c-2-1.4-3.7-3-4.9-4.8s-2-3.8-2.4-5.9s-0.4-4.2,0.1-6.2c0.5-2.3,1.4-4.3,2.6-5.9
				c1.2-1.6,2.7-2.8,4.4-3.7s3.7-1.4,5.8-1.5c2.1-0.1,4.4,0.1,6.8,0.6c0.8,0.2,1.5,0.4,2.2,0.6c0.7,0.2,1.2,0.4,1.6,0.6l-5.1,21.8
				c3.2,0.3,5.8-0.2,7.9-1.6c2.1-1.4,3.4-3.5,4.1-6.3c0.3-1.5,0.4-2.9,0.3-4.3c-0.1-1.4-0.5-2.8-1-4.2l5.7-1.6
				c0.7,1.9,1.2,3.9,1.4,6.1C118.6,616.4,118.4,618.6,117.9,620.8z M94.5,625l3.5-15.3c-2.7-0.6-4.9-0.5-6.7,0.3
				c-1.8,0.8-2.9,2.4-3.5,4.8c-0.5,2.1-0.2,4,0.9,5.9C89.9,622.6,91.8,624,94.5,625z"/>
			<path class="st11" d="M125.1,589.1l-44.9-14L85,560c0.7-2.3,1.6-4.4,2.7-6.3c1.1-1.9,2.4-3.4,3.9-4.5c1.5-1.1,3.2-1.9,5.2-2.2
				c2-0.3,4.2-0.1,6.7,0.7c3.4,1.1,5.9,2.7,7.5,5c1.6,2.3,2.4,4.9,2.5,7.9l22.1-4.9l-2.8,8.9l-20.6,4.2l-2.1,6.9l17.6,5.5
				L125.1,589.1z M103.7,573.7l2-6.4c1-3.1,1-5.6,0.3-7.6c-0.8-2-2.4-3.4-5-4.2c-2.6-0.8-4.7-0.6-6.2,0.7c-1.5,1.3-2.7,3.5-3.7,6.6
				l-2,6.4L103.7,573.7z"/>
			<path class="st11" d="M143,538.4c-0.9,2.3-2,4.3-3.6,6c-1.5,1.7-3.3,3-5.3,3.9c-2,0.9-4.3,1.4-6.7,1.4c-2.4,0-5-0.5-7.8-1.5
				c-2.7-1-5-2.3-6.8-4c-1.8-1.7-3.2-3.5-4.2-5.4c-1-2-1.5-4-1.6-6.2c-0.1-2.1,0.2-4.2,0.9-6.1c0.8-2.2,2-4.1,3.4-5.5
				c1.4-1.4,3-2.4,4.8-3.1c1.8-0.6,3.8-0.9,5.9-0.7c2.1,0.1,4.4,0.6,6.7,1.5c0.8,0.3,1.5,0.6,2.1,0.9s1.2,0.6,1.5,0.8l-7.8,21
				c3.1,0.7,5.8,0.5,8-0.6c2.2-1.1,3.9-3,4.9-5.7c0.5-1.4,0.8-2.9,0.9-4.2c0-1.4-0.1-2.8-0.4-4.3l5.8-0.8c0.4,2,0.6,4,0.6,6.2
				C144.2,534.1,143.8,536.2,143,538.4z M119.2,539.5l5.5-14.7c-2.6-1-4.8-1.2-6.6-0.6c-1.9,0.6-3.2,2-4.1,4.3c-0.7,2-0.7,4,0.2,6
				C115,536.5,116.7,538.2,119.2,539.5z"/>
			<path class="st11" d="M152.9,513.5c-1.2,2.9-3.1,4.8-5.6,5.8c-2.5,1-5.2,0.9-8-0.3c-1.7-0.7-3.1-1.8-4.1-3.1
				c-1-1.3-1.7-2.9-2-4.9c-0.3-2-0.3-4.3,0.1-7c0.4-2.7,1.1-5.8,2.2-9.3c-0.9-0.3-1.7-0.5-2.6-0.7c-0.9-0.1-1.7-0.1-2.5,0.1
				s-1.5,0.6-2.2,1.2c-0.7,0.6-1.2,1.5-1.7,2.6c-0.7,1.6-1,3.3-1.1,5.1c0,1.8,0.1,3.6,0.3,5.4l-6.3,0.6c-0.4-2.3-0.5-4.7-0.4-7.4
				c0.1-2.6,0.8-5.2,1.9-7.8c1.7-4,4.2-6.6,7.5-7.5c3.3-1,7.2-0.5,11.7,1.5l19.2,8.3l-2.7,6.3l-3.8-1l-0.1,0.3c0.6,2,1,4,1.1,6
				S153.7,511.6,152.9,513.5z M148,508.5c0.6-1.3,0.8-2.7,0.6-4c-0.2-1.3-0.5-2.9-1.1-4.6l-7.3-3.1c-0.7,2.3-1.1,4.3-1.3,6
				c-0.2,1.7-0.2,3.1-0.1,4.3c0.2,1.2,0.5,2.1,1,2.8c0.5,0.7,1.2,1.2,2,1.6c1.5,0.6,2.7,0.6,3.7,0
				C146.6,510.9,147.4,509.9,148,508.5z"/>
			<path class="st11" d="M168.9,478.5c-2,4-5,6.4-9.1,7.3c-4.1,0.9-8.7,0.1-13.9-2.5c-2.6-1.3-4.7-2.8-6.4-4.6
				c-1.7-1.8-2.9-3.6-3.7-5.6c-0.8-1.9-1.2-3.9-1.2-5.9c0-2,0.5-3.8,1.3-5.6c0.9-1.8,2-3.2,3.2-4.1c1.2-0.9,2.7-1.8,4.4-2.5
				l-5.2-2.3l-11.5-5.7l3.7-7.4l45.4,22.6l-3,6.1l-3.7-1.2l-0.1,0.3c0.6,1.7,0.9,3.6,0.9,5.5C170.1,474.9,169.7,476.8,168.9,478.5z
				 M163.7,473.6c1.2-2.4,1.1-5.2-0.3-8.4l-14.7-7.3c-1.5,0.6-2.8,1.4-3.7,2.2c-0.9,0.9-1.6,1.8-2.2,2.9c-1,2.1-1,4.2,0.1,6.6
				s3.3,4.3,6.7,6c3.4,1.7,6.3,2.4,8.7,2C160.7,477.3,162.5,476,163.7,473.6z"/>
			<path class="st11" d="M145.7,431.3c-0.7,1.3-1.7,2.2-2.9,2.6c-1.2,0.4-2.4,0.3-3.7-0.4c-1.2-0.7-2-1.6-2.3-2.9
				c-0.3-1.3-0.1-2.5,0.6-3.9c0.7-1.3,1.7-2.2,2.9-2.6c1.2-0.4,2.5-0.3,3.7,0.4c1.2,0.7,2,1.6,2.3,2.9
				C146.6,428.7,146.4,430,145.7,431.3z M180.1,454.9l-30.9-17l4-7.2l30.9,17L180.1,454.9z"/>
			<path class="st11" d="M188.1,440.1l-30.2-18.2l3.5-5.8l4.4,2l0.1-0.2c-0.5-2.1-0.7-4.3-0.7-6.4c0-2.1,0.6-4.3,1.9-6.4
				c2-3.2,4.4-5,7.4-5.2c3-0.2,6.4,0.8,10.2,3.1l19,11.4l-4.3,7.1l-18-10.9c-2.5-1.5-4.5-2.2-6-2.1c-1.5,0.1-2.7,1-3.7,2.7
				c-0.8,1.3-1.2,2.7-1.1,4.1c0,1.4,0.3,3.1,0.7,5.1l21.1,12.7L188.1,440.1z"/>
			<path class="st11" d="M217.1,395.8c-1.4,2-3,3.7-4.9,4.9c-1.9,1.3-3.9,2.1-6.1,2.5c-2.2,0.4-4.5,0.4-6.9-0.2
				c-2.4-0.5-4.8-1.6-7.2-3.3c-2.4-1.6-4.3-3.4-5.7-5.5c-1.4-2-2.3-4.1-2.8-6.3s-0.5-4.3-0.1-6.4s1.2-4,2.3-5.7
				c1.3-2,2.9-3.5,4.6-4.6c1.7-1,3.5-1.7,5.4-1.8c1.9-0.2,3.9,0.1,6,0.7c2.1,0.6,4.1,1.6,6.1,3c0.7,0.5,1.3,0.9,1.8,1.4
				c0.6,0.5,1,0.9,1.3,1.2l-12.6,18.6c2.8,1.5,5.5,1.9,7.9,1.3c2.4-0.6,4.5-2.1,6.1-4.4c0.9-1.3,1.5-2.6,1.8-3.9
				c0.4-1.3,0.6-2.8,0.6-4.3l5.9,0.6c0,2-0.3,4.1-0.9,6.2C219.2,391.9,218.3,393.9,217.1,395.8z M193.7,391.3l8.8-13
				c-2.3-1.5-4.4-2.2-6.3-2.1c-1.9,0.1-3.6,1.2-5,3.2c-1.2,1.7-1.6,3.7-1.3,5.8C190.3,387.4,191.5,389.4,193.7,391.3z"/>
			<path class="st11" d="M233.9,372.2c-1.5,2-3.3,3.6-5.4,4.9s-4.3,2.3-6.5,2.8l-1.9-6.3c1.9-0.5,3.7-1.2,5.1-2
				c1.5-0.8,2.8-2,3.9-3.4c1.1-1.5,1.7-2.9,1.6-4.1c-0.1-1.2-0.6-2.2-1.6-2.9c-0.6-0.4-1.2-0.6-1.9-0.6c-0.7,0-1.4,0.2-2.2,0.5
				c-0.8,0.3-1.6,0.7-2.4,1.2c-0.8,0.5-1.7,1-2.5,1.5c-1,0.7-2.1,1.3-3.3,1.9c-1.2,0.6-2.4,1.1-3.6,1.3c-1.2,0.3-2.4,0.3-3.7,0.1
				s-2.4-0.7-3.6-1.6c-2.5-1.9-3.8-4.3-4-7.3c-0.2-3,0.9-6.1,3.3-9.3c1.5-2,3.1-3.5,5-4.5c1.9-1.1,3.7-1.8,5.4-2.3l1.8,6.1
				c-1.5,0.5-2.8,1-4,1.7c-1.2,0.7-2.2,1.6-3,2.7c-1.1,1.4-1.5,2.7-1.5,3.8c0.1,1.1,0.6,2,1.5,2.7c0.6,0.4,1.2,0.6,1.8,0.6
				c0.6,0,1.3-0.2,2-0.5c0.7-0.3,1.5-0.7,2.3-1.2c0.8-0.5,1.6-1,2.5-1.6c1.1-0.7,2.2-1.4,3.3-2c1.2-0.6,2.4-1.1,3.6-1.4
				c1.2-0.3,2.5-0.3,3.8-0.1c1.3,0.2,2.6,0.8,3.9,1.8c1.2,0.9,2.2,2,2.9,3.3c0.7,1.3,1.1,2.7,1.2,4.2c0.1,1.5-0.1,3.1-0.7,4.9
				C236.2,368.7,235.2,370.4,233.9,372.2z"/>
			<path class="st11" d="M251.7,349.4c-1.5,1.9-3.4,3.5-5.7,4.7s-4.4,2.1-6.6,2.6l-1.7-6.4c2-0.4,3.7-1,5.2-1.8
				c1.5-0.8,2.9-1.9,4-3.3c1.2-1.5,1.8-2.8,1.8-4c0-1.2-0.5-2.2-1.5-3c-0.6-0.5-1.2-0.7-1.9-0.7s-1.4,0.1-2.2,0.4
				c-0.8,0.3-1.6,0.7-2.5,1.1c-0.9,0.5-1.7,1-2.6,1.4c-1.1,0.6-2.2,1.2-3.4,1.8c-1.2,0.6-2.4,1-3.6,1.2c-1.2,0.2-2.4,0.2-3.7,0
				c-1.2-0.2-2.4-0.8-3.5-1.7c-2.4-2-3.7-4.5-3.7-7.5c-0.1-3,1.2-6.1,3.7-9.2c1.5-1.9,3.3-3.3,5.2-4.3c1.9-1,3.7-1.7,5.5-2.1
				l1.5,6.1c-1.5,0.4-2.9,0.9-4.1,1.5c-1.2,0.6-2.3,1.5-3.2,2.6c-1.1,1.4-1.7,2.6-1.6,3.7c0,1.1,0.5,2,1.3,2.7
				c0.6,0.5,1.2,0.7,1.8,0.7c0.6,0,1.3-0.1,2.1-0.4c0.7-0.3,1.5-0.7,2.3-1.1c0.8-0.5,1.7-1,2.5-1.5c1.1-0.7,2.2-1.3,3.4-1.9
				c1.2-0.6,2.4-1,3.7-1.2c1.3-0.2,2.5-0.2,3.8,0c1.3,0.3,2.6,0.9,3.8,2c1.2,1,2.1,2.1,2.7,3.4c0.6,1.3,1,2.7,1,4.2
				c0,1.5-0.3,3.1-0.9,4.8S253,347.7,251.7,349.4z"/>
		</g>
	</g>
	<g>
		<g>
			<path class="st12" d="M377.3,514.1l14.1-19.2c10.1-13.8,25.4-17.1,38.2-7.8c12.8,9.4,14.1,24.9,4,38.7l-14.1,19.2L377.3,514.1z
				 M425.2,520.6c6.2-8.4,5.2-17.5-2.9-23.5s-17.1-4.1-23.3,4.2l-6.6,8.9l26.1,19.2L425.2,520.6z"/>
			<path class="st12" d="M467.9,460.1l-20.7,22.2c4.4,2.6,9.6,1.6,13.8-2.9c2.9-3.1,4.1-6.2,4-10l9.1,0.1c0.6,5.6-1.6,11.3-6.6,16.6
				c-9.5,10.2-22,10.8-30.8,2.7c-8.8-8.2-8.9-20.8-0.5-29.8c8.1-8.6,20.1-9.9,29.5-1.1C466.4,458.4,467.3,459.3,467.9,460.1z
				 M442.1,477.8l13.5-14.5c-4.3-2.9-9.3-2.3-12.8,1.5C439.2,468.7,438.9,473.6,442.1,477.8z"/>
			<path class="st12" d="M502.9,425c8.3,9.5,7,21.4-1.6,28.8c-3.8,3.3-7.9,4.8-12.3,4.3l12.3,14.2l-8.8,7.6l-35.8-41.3l8.4-7.3
				l3,3.5c-0.1-4.6,2-8.7,6.1-12.2C482.7,415.1,494.6,415.5,502.9,425z M494,432.8c-4.6-5.3-10.6-5.5-15-1.7
				c-4.4,3.8-5,9.9-0.4,15.1c4.6,5.3,10.6,5.5,15,1.7S498.5,438,494,432.8z"/>
			<path class="st12" d="M486.8,393.5l9.4-6.9l32.9,44.6l-9.4,6.9L486.8,393.5z"/>
			<path class="st12" d="M521.7,411.2c-6.4-10.3-3.1-22.5,7.7-29.3c10.8-6.8,23.2-4.4,29.7,5.8c6.4,10.3,3.2,22.5-7.7,29.3
				S528.2,421.5,521.7,411.2z M549.1,394c-3.7-5.9-9.7-7.1-14.6-4c-4.9,3.1-6.5,9-2.8,14.9c3.7,5.9,9.7,7,14.7,4
				C551.3,405.8,552.8,399.9,549.1,394z"/>
			<path class="st12" d="M590,349.9l2.8,46.3c0.9,10.4-2.8,15.5-9.3,18.7c-3.7,1.8-8.3,2.6-11.7,1.7l0.1-9.3c2.3,0.6,4.9,0.4,7-0.7
				c2.9-1.4,3.8-3.5,3.7-7.4l0-0.4L549,370.4l10.8-5.4l22.3,19.4l-2-29.5L590,349.9z"/>
			<path class="st12" d="M588.3,338c-1.4-3.4,0.2-7.1,4.2-8.8c4-1.7,7.7-0.3,9.1,3c1.5,3.6-0.1,7.3-4.1,9
				C593.5,342.9,589.7,341.4,588.3,338z M594.2,348.7l10.8-4.4l15.3,37.2l-10.8,4.4L594.2,348.7z"/>
			<path class="st12" d="M659,343.9l7,21.9l-11.1,3.6l-6.5-20.2c-2-6.2-5.7-8.1-10.7-6.5c-5.3,1.7-8.1,6.2-5.9,13.3l6.1,18.9
				l-11.1,3.6l-12.3-38.3l10.6-3.4l1.4,4.5c1.9-4.2,5.8-7.5,11-9.1C646.8,329.2,655.3,332.2,659,343.9z"/>
			<path class="st12" d="M705.2,316.6l6.5,32.8c2.9,14.7-3.6,23-17.9,25.8c-7.5,1.5-15.1,1.1-20.4-1.6l2.9-9.1
				c3.9,2,9.8,2.7,14.8,1.7c8.1-1.6,10.8-6,9.4-13.1l-0.3-1.7c-2.3,3.9-6.3,6.4-11.5,7.4c-10.9,2.2-21.2-3.6-23.5-15.1
				c-2.3-11.5,5-20.8,15.9-23c5.5-1.1,10.4-0.2,14.2,3l-1-5.1L705.2,316.6z M697.6,337.3c-1.2-5.8-6.3-8.8-12.3-7.6
				c-6,1.2-9.6,6-8.5,11.8c1.2,5.8,6.3,8.8,12.3,7.6C695.2,347.9,698.8,343.1,697.6,337.3z"/>
		</g>
	</g>
	<g>
		<g>
			<path class="st12" d="M907.6,361.8l-2.5,9.4l-39.2-10.3l13.3-50.6l38.2,10l-2.5,9.4l-26.6-7l-2.9,11l23.5,6.2l-2.4,9.1l-23.5-6.2
				l-3.1,11.7L907.6,361.8z"/>
			<path class="st12" d="M956,365.9l-8.3,21.5l-10.9-4.2l7.6-19.8c2.3-6.1,0.6-9.9-4.2-11.8c-5.2-2-10.2-0.2-12.9,6.7l-7.1,18.6
				l-10.9-4.2l14.4-37.5l10.4,4l-1.7,4.4c4.2-2.1,9.2-2.1,14.3-0.2C955.7,346.7,960.4,354.4,956,365.9z"/>
			<path class="st12" d="M1006.6,372l-33.3,28.2l-10.7-5.4l3.1-43.5l10.7,5.4l-2.4,29.4l22.6-19.2L1006.6,372z"/>
			<path class="st12" d="M1010.1,374.6l10,6l-20.7,34.5l-10-6L1010.1,374.6z M1015.1,363.5c1.9-3.1,5.8-4.1,9.6-1.8
				c3.7,2.2,4.8,6,3,9.1c-2,3.3-6,4.3-9.7,2C1014.2,370.6,1013.2,366.6,1015.1,363.5z"/>
			<path class="st12" d="M1004.9,413.7l8-4.7c1.6,3.9,5.2,8.3,9.3,11.2c4.4,3.1,6.9,3,8.2,1.2c3.7-5.4-20-13.7-10.9-26.9
				c4.3-6.3,13.1-6.8,22.7-0.1c4.5,3.2,8.9,7.7,10.7,11.7l-7.9,4.6c-2-4.1-4.8-7-7.8-9.1c-4.3-3-7.1-2.9-8.3-1.2
				c-3.9,5.7,19.8,14,10.8,27c-4.3,6.1-13,6.5-22.9-0.3C1011.1,423.3,1006.5,417.9,1004.9,413.7z"/>
			<path class="st12" d="M1060.6,408.7l9.1,7.3l-25,31.5l-9.1-7.3L1060.6,408.7z M1067,398.4c2.3-2.9,6.3-3.3,9.7-0.6
				c3.4,2.7,4,6.6,1.8,9.4c-2.4,3-6.5,3.5-9.9,0.8S1064.8,401.2,1067,398.4z"/>
			<path class="st12" d="M1062.1,435.1c8.2-8.9,20.9-8.8,30.3-0.2s10.3,21.3,2.1,30.2s-20.9,8.9-30.2,0.2S1053.9,444,1062.1,435.1z
				 M1085.8,457.1c4.7-5.1,4.3-11.2,0.1-15.1s-10.4-3.9-15.1,1.2s-4.3,11.2,0,15.2S1081.1,462.2,1085.8,457.1z"/>
			<path class="st12" d="M1127.6,498.3l-17.4,15.1l-7.7-8.8l16-13.9c4.9-4.3,5.2-8.5,1.8-12.4c-3.7-4.2-8.9-5-14.5-0.2l-15,13
				l-7.7-8.8l30.3-26.4l7.3,8.4l-3.6,3.1c4.7,0.1,9.2,2.4,12.7,6.6C1136.3,481.3,1136.8,490.3,1127.6,498.3z"/>
			<path class="st12" d="M1146.5,495.3l6.9,9.4l-32.3,23.9l-6.9-9.4L1146.5,495.3z M1155.3,487c2.9-2.2,7-1.5,9.5,2
				c2.6,3.5,2.2,7.4-0.7,9.6c-3.1,2.3-7.1,1.7-9.7-1.8C1151.8,493.2,1152.4,489.2,1155.3,487z"/>
			<path class="st12" d="M1167,557l-19.5,12.2l-6.2-9.9l18-11.3c5.5-3.4,6.5-7.6,3.7-11.9c-3-4.8-8-6.4-14.3-2.4l-16.9,10.5
				l-6.2-9.9l34.1-21.3l5.9,9.4l-4,2.5c4.6,0.8,8.7,3.8,11.6,8.5C1178.2,541.5,1177.3,550.5,1167,557z"/>
			<path class="st12" d="M1204.8,595.1l-30.2,14.4c-13.5,6.4-23.2,2.1-29.4-11c-3.3-6.9-4.8-14.4-3.5-20.2l9.5,0.6
				c-1,4.3-0.2,10.1,2,14.8c3.5,7.4,8.5,9,15,5.9l1.6-0.7c-4.4-1.3-7.7-4.6-10-9.3c-4.8-10-1.7-21.5,8.9-26.5s21.4-0.3,26.2,9.8
				c2.4,5.1,2.7,10,0.5,14.5l4.7-2.2L1204.8,595.1z M1182.8,592.8c5.3-2.5,7-8.2,4.4-13.8c-2.6-5.5-8.1-7.9-13.5-5.3
				c-5.3,2.5-7,8.3-4.3,13.8C1172,593.1,1177.5,595.3,1182.8,592.8z"/>
		</g>
	</g>
	<g>
		<g>
			<path class="st12" d="M1133.5,1040.3c9,7.4,9,18.8,0.1,29.6l-6.7,8.1l11.1,9.2l-7.7,9.3l-40.3-33.4l14.4-17.4
				C1113.3,1034.9,1124.4,1032.8,1133.5,1040.3z M1125.6,1049.7c-4.4-3.7-9.4-2.9-14.1,2.8l-6.3,7.6l14,11.6l6.3-7.6
				C1130.2,1058.4,1130,1053.4,1125.6,1049.7z"/>
			<path class="st12" d="M1118.6,1022.1l6.7-9.6l45.5,31.7l-6.7,9.6L1118.6,1022.1z"/>
			<path class="st12" d="M1175.7,992.7l19.7,11.7l-5.6,9.4l-4.3-2.6c2,3.7,1.6,8.3-1.5,13.4c-4.8,8.1-12.2,10.2-18.2,6.7
				c-6.1-3.6-7.8-10.5-1.5-21l4.7-8c-4.3-2.6-8.3-1.5-11.5,3.9c-2.2,3.7-3.2,8.2-2.7,11.9l-9.1-0.6c-0.4-5.4,1.4-11.9,4.7-17.4
				C1156.7,989.7,1165.2,986.5,1175.7,992.7z M1178.5,1008l-3.5-2.1l-4.1,6.9c-2.8,4.7-1.9,7.2,0.4,8.6c2.5,1.5,5.4,0.4,7.5-3.2
				C1180.8,1014.8,1181,1011,1178.5,1008z"/>
			<path class="st12" d="M1197.3,947.1l20.9,9.6l-4.9,10.6l-19.3-8.9c-5.9-2.7-9.9-1.3-12,3.4c-2.3,5.1-0.9,10.2,5.8,13.3l18.1,8.3
				l-4.9,10.6l-36.5-16.8l4.7-10.1l4.3,2c-1.8-4.3-1.5-9.3,0.7-14.3C1178.2,946.2,1186.2,942,1197.3,947.1z"/>
			<path class="st12" d="M1213.7,899.3l21.9,7.2l-3.7,11.1l-20.2-6.7c-6.2-2-9.9-0.1-11.6,4.8c-1.8,5.3,0.2,10.2,7.3,12.6l18.9,6.2
				l-3.7,11.1l-38.2-12.6l3.5-10.6l4.5,1.5c-2.3-4.1-2.6-9.1-0.9-14.3C1194.5,900.5,1202,895.4,1213.7,899.3z"/>
			<path class="st12" d="M1186.9,884.6c-3.6-0.9-5.6-4.4-4.6-8.6s4.3-6.4,7.8-5.6c3.8,0.9,5.8,4.4,4.8,8.6
				S1190.4,885.5,1186.9,884.6z M1199,886.1l2.8-11.3l39.1,9.5l-2.8,11.3L1199,886.1z"/>
			<path class="st12" d="M1227.5,829l22.7,3.7l-1.9,11.5l-21-3.4c-6.4-1-9.8,1.4-10.7,6.5c-0.9,5.5,1.9,10.1,9.2,11.3l19.6,3.2
				l-1.9,11.5l-39.7-6.4l1.8-11l4.6,0.8c-2.9-3.6-4-8.6-3.1-14C1208.8,833.2,1215.4,827,1227.5,829z"/>
			<path class="st12" d="M1213.3,776.9l33.4,1.6c14.9,0.7,21.4,9.1,20.7,23.6c-0.4,7.6-2.6,14.9-6.5,19.4l-8.1-5
				c2.9-3.3,5-8.8,5.2-14c0.4-8.2-3.2-12-10.4-12.3l-1.7-0.1c3.2,3.2,4.6,7.7,4.4,12.9c-0.5,11.1-8.6,19.7-20.4,19.2
				s-19-9.9-18.4-21c0.3-5.6,2.4-10.1,6.4-13l-5.2-0.2L1213.3,776.9z M1231.6,789.3c-5.9-0.3-10.1,3.9-10.4,10.1
				c-0.3,6.1,3.4,10.8,9.3,11.1c5.9,0.3,10.1-4,10.4-10.1C1241.2,794.2,1237.5,789.6,1231.6,789.3z"/>
		</g>
	</g>
	<g>
		<g>
			<path class="st12" d="M560.5,1142.7l21.1,10.9c15.2,7.8,20.9,22.4,13.7,36.5s-22.4,17.9-37.6,10.1l-21.1-10.9L560.5,1142.7z
				 M561.8,1191c9.2,4.8,18.1,2.3,22.7-6.6c4.6-8.9,1.4-17.5-7.9-22.3l-9.8-5.1l-14.8,28.8L561.8,1191z"/>
			<path class="st12" d="M635.3,1214.7l-28.5-10.6c-0.7,5.1,2.2,9.4,8,11.6c4,1.5,7.3,1.4,10.8-0.1l3.5,8.5c-5,2.7-11,2.8-17.8,0.3
				c-13-4.9-18.4-16.2-14.3-27.4c4.2-11.3,15.8-16.2,27.3-11.9c11.1,4.1,16.8,14.7,12.3,26.8
				C636.3,1212.7,635.7,1213.8,635.3,1214.7z M609,1197.7l18.6,6.9c1-5-1.4-9.5-6.3-11.3C616.3,1191.5,611.6,1193.1,609,1197.7z"/>
			<path class="st12" d="M686.3,1204.2l-26.7,34.5l-11.6-3.1l-6-43.2l11.6,3.1l3.8,29.3l18.1-23.5L686.3,1204.2z"/>
			<path class="st12" d="M722,1233.6l-30-4.9c0.3,5.1,4,8.8,10.1,9.8c4.2,0.7,7.4-0.1,10.6-2.2l5,7.6c-4.4,3.6-10.3,4.9-17.4,3.7
				c-13.7-2.3-21.2-12.3-19.3-24.1c1.9-11.9,12.4-18.9,24.5-17c11.7,1.9,19.4,11.2,17.3,24C722.6,1231.4,722.3,1232.6,722,1233.6z
				 M693,1221.9l19.5,3.2c0-5.1-3.2-9-8.4-9.9C698.9,1214.4,694.6,1217,693,1221.9z"/>
			<path class="st12" d="M732.7,1195.4l11.6,1l-4.9,55.2l-11.6-1L732.7,1195.4z"/>
			<path class="st12" d="M747.9,1232.6c0.2-12.1,9.7-20.5,22.5-20.3s21.9,8.9,21.7,21.1c-0.2,12.1-9.6,20.5-22.4,20.3
				S747.7,1244.7,747.9,1232.6z M780.3,1233.1c0.1-6.9-4.2-11.2-10.1-11.3c-5.8-0.1-10.4,4-10.5,11s4.3,11.2,10.1,11.3
				S780.1,1240,780.3,1233.1z"/>
			<path class="st12" d="M842.6,1228.8c1.2,12.6-6.8,21.4-18,22.5c-5,0.5-9.2-0.7-12.5-3.7l1.7,18.7l-11.6,1.1l-5.1-54.5l11.1-1
				l0.4,4.6c2.6-3.8,6.7-5.9,12.1-6.4C832,1209,841.5,1216.2,842.6,1228.8z M830.9,1229.9c-0.6-6.9-5.4-10.7-11.2-10.1
				c-5.8,0.5-9.8,5.1-9.2,12c0.6,6.9,5.4,10.7,11.2,10.1C827.5,1241.4,831.5,1236.8,830.9,1229.9z"/>
			<path class="st12" d="M842.4,1195.7c-0.6-3.6,1.8-6.9,6-7.6c4.3-0.7,7.6,1.4,8.2,4.9c0.7,3.8-1.7,7.1-6,7.9
				C846.3,1201.6,843,1199.3,842.4,1195.7z M845.8,1207.4l11.5-2l6.9,39.6l-11.5,2L845.8,1207.4z"/>
			<path class="st12" d="M909.6,1210.7l5.7,22.3l-11.3,2.9l-5.3-20.6c-1.6-6.3-5.3-8.4-10.3-7.2c-5.4,1.4-8.5,5.7-6.6,12.9l4.9,19.3
				l-11.3,2.9l-10-38.9l10.8-2.8l1.2,4.6c2.2-4.1,6.3-7.1,11.6-8.5C898.2,1195.2,906.5,1198.8,909.6,1210.7z"/>
			<path class="st12" d="M951.6,1176.8l12,31.3c5.3,14,0.3,23.3-13.3,28.4c-7.1,2.7-14.7,3.6-20.4,1.9l1.3-9.5
				c4.2,1.4,10.1,1,14.9-0.8c7.7-2.9,9.7-7.7,7.1-14.5l-0.6-1.6c-1.7,4.2-5.2,7.3-10.1,9.2c-10.4,4-21.5,0-25.7-11
				s1.4-21.4,11.8-25.3c5.2-2,10.2-1.9,14.5,0.6l-1.8-4.8L951.6,1176.8z M947.6,1198.5c-2.1-5.5-7.6-7.6-13.4-5.4
				c-5.7,2.2-8.5,7.5-6.4,13s7.7,7.6,13.4,5.4C947,1209.3,949.7,1204,947.6,1198.5z"/>
		</g>
	</g>
	<g>
		<path class="st12" d="M311.7,692.3l8.5,5.3c-3.8,3.9-6.8,10.2-7.7,16.4c-0.9,7.1,1,10.3,4.2,10.7c9.7,1.3,7-29.7,26.3-27.2
			c8.8,1.2,15.2,9.3,13.3,24c-0.9,6.5-3.3,13-7,17.4l-8.6-4.9c3.4-4.5,5.4-9.2,6-13.8c0.9-7.1-1.4-10.2-4.6-10.6
			c-9.6-1.3-7,29.8-26,27.2c-8.7-1.1-15.1-9.3-13.2-24.1C304,704.4,307.5,696.4,311.7,692.3z"/>
		<path class="st12" d="M301.3,768.9c-1.6-2.5-2.3-6-2.1-9.6c0.4-9.5,5.6-14.8,15.1-14.3l16.5,0.8l0.3-6.2l9,0.4l-0.3,6.2l9.8,0.5
			l-0.5,11.6l-9.8-0.5l-0.5,10l-9-0.4l0.5-10l-16.4-0.8c-3.4-0.2-5.4,1.6-5.5,4.8c-0.1,1.7,0.4,3.5,1.3,4.8L301.3,768.9z"/>
		<path class="st12" d="M323.5,810.8l-22.9,0.8l-0.4-10.9l5-0.2c-3.7-2-5.8-6.1-6-12c-0.3-9.4,4.7-15.2,11.6-15.5
			c7.1-0.3,12.2,4.6,12.6,16.8l0.3,9.3c5-0.2,7.8-3.3,7.6-9.5c-0.2-4.3-1.7-8.6-4.2-11.4l8-4.5c3.3,4.3,5.2,10.7,5.5,17.2
			C341.1,803.1,335.6,810.4,323.5,810.8z M312.8,799.5l4.1-0.1l-0.3-8c-0.2-5.5-2.3-7.1-5-7c-2.9,0.1-4.8,2.6-4.6,6.7
			C307.2,795,309.1,798.3,312.8,799.5z"/>
		<path class="st12" d="M327.5,864c-12.5,1.8-21.7-5.8-23.3-16.9c-0.8-5.3,0.3-9.9,3.4-13.2l-4.6,0.6l-1.6-11l54.9-7.8l1.6,11.5
			l-19.3,2.7c3.7,2.5,5.8,6.4,6.5,11.3C346.7,852.4,340,862.2,327.5,864z M325.8,852.3c6.9-1,10.4-5.9,9.6-11.7s-5.6-9.6-12.5-8.6
			c-6.9,1-10.4,5.9-9.6,11.7S318.9,853.3,325.8,852.3z"/>
		<path class="st12" d="M349,866.1l2.5,11.4l-39.2,8.8l-2.5-11.4L349,866.1z M360.5,862.1c3.6-0.8,7,1.4,7.9,5.7s-1,7.7-4.5,8.4
			c-3.8,0.8-7.2-1.4-8.1-5.6S356.9,862.9,360.5,862.1z"/>
		<path class="st12" d="M368.3,881.9l3.1,11.2l-53.5,14.6l-3.1-11.2L368.3,881.9z"/>
		<path class="st12" d="M359.2,905.5l3.6,11.1L324.5,929l-3.6-11.1L359.2,905.5z M370.2,900.4c3.5-1.1,7.1,0.8,8.4,4.9
			c1.3,4.1-0.3,7.7-3.7,8.8c-3.7,1.2-7.3-0.7-8.6-4.8C365,905.2,366.8,901.5,370.2,900.4z"/>
		<path class="st12" d="M348.6,966.9l-8.3,3.3L327,937l6.5-2.6l30.1,10l-7.4-18.5l8.3-3.3l12.9,32.2l-6.5,2.6l-30.1-10L348.6,966.9z
			"/>
		<path class="st12" d="M380,959.8l5,10.5l-36.2,17.4l-5-10.5L380,959.8z M390.3,953.3c3.3-1.6,7.1-0.2,9,3.7
			c1.9,3.9,0.7,7.7-2.5,9.3c-3.5,1.7-7.3,0.3-9.2-3.6S387,954.9,390.3,953.3z"/>
		<path class="st12" d="M394.2,1022l-19.9,11.6l-5.9-10.1l18.3-10.7c5.6-3.3,6.7-7.4,4.1-11.8c-2.8-4.8-7.8-6.6-14.2-2.9l-17.2,10
			l-5.9-10.1l34.8-20.2l5.6,9.6l-4.1,2.4c4.6,1,8.5,4.1,11.3,8.8C406,1006.9,404.8,1015.9,394.2,1022z"/>
		<path class="st12" d="M438.2,1053.3l-26.9,20c-12,8.9-22.3,6.6-31-5.1c-4.6-6.1-7.5-13.2-7.3-19.1l9.5-1.3
			c-0.2,4.4,1.7,10,4.8,14.1c4.9,6.6,10,7.2,15.9,2.9l1.4-1c-4.5-0.5-8.5-3-11.6-7.2c-6.6-8.9-5.8-20.7,3.6-27.7
			c9.4-7,20.9-4.4,27.6,4.5c3.3,4.5,4.6,9.3,3.3,14.1l4.1-3.1L438.2,1053.3z M416.3,1055.3c4.7-3.5,5.3-9.4,1.6-14.3
			c-3.7-4.9-9.5-6.1-14.3-2.6c-4.7,3.5-5.2,9.5-1.6,14.4C405.7,1057.7,411.5,1058.8,416.3,1055.3z"/>
	</g>
	<g>
		<path class="st13" d="M645.8,713.4l-0.1-31.4l-15.4,25.9h-5.5l-15.3-25.2v30.7h-11.4v-52.3h10l19.6,32.5l19.3-32.5h9.9l0.1,52.3
			H645.8z"/>
		<path class="st13" d="M667.4,661.1c0-3.7,2.9-6.5,7.3-6.5c4.3,0,7.2,2.7,7.2,6.3c0,3.9-2.9,6.7-7.2,6.7
			C670.3,667.6,667.4,664.7,667.4,661.1z M668.8,673.2h11.7v40.2h-11.7V673.2z"/>
		<path class="st13" d="M688.3,693.3c0-12.1,9.3-20.7,22.4-20.7c8.4,0,15.1,3.7,18,10.2l-9,4.9c-2.2-3.8-5.4-5.5-9-5.5
			c-5.9,0-10.5,4.1-10.5,11.1s4.6,11.1,10.5,11.1c3.7,0,6.9-1.6,9-5.5l9,4.9c-2.9,6.4-9.6,10.2-18,10.2
			C697.6,714,688.3,705.4,688.3,693.3z"/>
		<path class="st13" d="M760.4,672.6v10.8c-1-0.1-1.7-0.1-2.6-0.1c-6.4,0-10.7,3.5-10.7,11.2v19h-11.7v-40.2h11.1v5.3
			C749.4,674.6,754.2,672.6,760.4,672.6z"/>
		<path class="st13" d="M764,693.3c0-12.1,9.3-20.7,22.1-20.7s22,8.6,22,20.7s-9.3,20.7-22,20.7S764,705.4,764,693.3z M796.4,693.3
			c0-7-4.4-11.1-10.2-11.1c-5.8,0-10.3,4.2-10.3,11.1c0,7,4.5,11.1,10.3,11.1C791.9,704.4,796.4,700.2,796.4,693.3z"/>
		<path class="st13" d="M812,709.6l3.9-8.4c3.6,2.3,9,3.9,14,3.9c5.4,0,7.4-1.4,7.4-3.7c0-6.6-24.3,0.1-24.3-15.9
			c0-7.6,6.9-13,18.6-13c5.5,0,11.7,1.3,15.5,3.5l-3.9,8.3c-4-2.2-7.9-3-11.6-3c-5.2,0-7.5,1.6-7.5,3.7c0,6.9,24.3,0.2,24.3,16.1
			c0,7.5-7,12.8-19,12.8C822.7,714,815.8,712.1,812,709.6z"/>
		<path class="st13" d="M852.6,693.3c0-12.1,9.3-20.7,22.1-20.7s22,8.6,22,20.7s-9.3,20.7-22,20.7S852.6,705.4,852.6,693.3z
			 M885,693.3c0-7-4.4-11.1-10.2-11.1c-5.8,0-10.3,4.2-10.3,11.1c0,7,4.5,11.1,10.3,11.1C880.6,704.4,885,700.2,885,693.3z"/>
		<path class="st13" d="M917.3,674.1h10.3v9h-10v30.3H906V683h-6.2v-9h6.2v-1.8c0-9,5.5-14.9,15.5-14.9c3.3,0,6.7,0.7,8.9,2.2
			l-3.1,8.4c-1.3-0.9-2.9-1.4-4.7-1.4c-3.4,0-5.3,1.9-5.3,5.8V674.1z"/>
		<path class="st13" d="M959.4,711.4c-2.4,1.7-5.9,2.5-9.5,2.5c-9.5,0-15-4.9-15-14.4V683h-6.2v-9h6.2v-9.8h11.7v9.8h10v9h-10v16.4
			c0,3.4,1.9,5.3,5,5.3c1.7,0,3.4-0.5,4.7-1.5L959.4,711.4z"/>
		<path class="st13" d="M595.5,797.9l4.1-9.1c4.4,3.2,11,5.5,17.3,5.5c7.2,0,10.1-2.4,10.1-5.6c0-9.8-30.4-3.1-30.4-22.5
			c0-8.9,7.2-16.3,22-16.3c6.6,0,13.3,1.6,18.2,4.6l-3.7,9.2c-4.9-2.8-9.9-4.1-14.5-4.1c-7.2,0-9.9,2.7-9.9,6
			c0,9.6,30.4,3,30.4,22.2c0,8.7-7.2,16.2-22.2,16.2C608.5,804,600.2,801.5,595.5,797.9z"/>
		<path class="st13" d="M643.5,783c0-12.1,9.3-20.7,22.1-20.7s22,8.6,22,20.7s-9.3,20.7-22,20.7S643.5,795.1,643.5,783z M675.9,783
			c0-7-4.4-11.1-10.2-11.1c-5.8,0-10.3,4.2-10.3,11.1c0,7,4.5,11.1,10.3,11.1C671.5,794.1,675.9,789.9,675.9,783z"/>
		<path class="st13" d="M695.5,747.6h11.7v55.5h-11.7V747.6z"/>
		<path class="st13" d="M758.5,762.9v40.2h-11.1v-4.8c-3.1,3.5-7.5,5.4-12.5,5.4c-10.1,0-17.2-5.7-17.2-18.1v-22.7h11.7v21
			c0,6.7,3,9.7,8.1,9.7c5.4,0,9.3-3.4,9.3-10.8v-19.9H758.5z"/>
		<path class="st13" d="M795.2,801.1c-2.4,1.7-5.9,2.5-9.5,2.5c-9.5,0-15-4.9-15-14.4v-16.5h-6.2v-9h6.2V754h11.7v9.8h10v9h-10v16.4
			c0,3.4,1.9,5.3,5,5.3c1.7,0,3.4-0.5,4.7-1.5L795.2,801.1z"/>
		<path class="st13" d="M800.4,750.8c0-3.7,2.9-6.5,7.3-6.5c4.3,0,7.2,2.7,7.2,6.3c0,3.9-2.9,6.7-7.2,6.7
			C803.3,757.3,800.4,754.4,800.4,750.8z M801.8,762.9h11.7v40.2h-11.7V762.9z"/>
		<path class="st13" d="M821.3,783c0-12.1,9.3-20.7,22.1-20.7s22,8.6,22,20.7s-9.3,20.7-22,20.7S821.3,795.1,821.3,783z M853.7,783
			c0-7-4.4-11.1-10.2-11.1c-5.8,0-10.3,4.2-10.3,11.1c0,7,4.5,11.1,10.3,11.1C849.3,794.1,853.7,789.9,853.7,783z"/>
		<path class="st13" d="M914.4,780v23h-11.7v-21.2c0-6.5-3-9.5-8.1-9.5c-5.6,0-9.6,3.4-9.6,10.8v19.9h-11.7v-40.2h11.1v4.7
			c3.1-3.4,7.8-5.3,13.3-5.3C907.2,762.3,914.4,767.8,914.4,780z"/>
		<path class="st13" d="M921,799.3l3.9-8.4c3.6,2.3,9,3.9,14,3.9c5.4,0,7.4-1.4,7.4-3.7c0-6.6-24.3,0.1-24.3-15.9
			c0-7.6,6.9-13,18.6-13c5.5,0,11.7,1.3,15.5,3.5l-3.9,8.3c-4-2.2-7.9-3-11.6-3c-5.2,0-7.5,1.6-7.5,3.7c0,6.9,24.3,0.2,24.3,16.1
			c0,7.5-7,12.8-19,12.8C931.6,803.7,924.7,801.8,921,799.3z"/>
		<path class="st13" d="M570.1,850.1V864h24.2v9.7h-24.2v19.1h-12.1v-52.3h39.5v9.7H570.1z"/>
		<path class="st13" d="M629.1,851.9v10.8c-1-0.1-1.7-0.1-2.6-0.1c-6.4,0-10.7,3.5-10.7,11.2v19h-11.7v-40.2h11.1v5.3
			C618.1,854,622.9,851.9,629.1,851.9z"/>
		<path class="st13" d="M671.4,869.8v22.9h-10.9v-5c-2.2,3.7-6.4,5.6-12.3,5.6c-9.4,0-15-5.2-15-12.2c0-7.1,5-12,17.3-12h9.3
			c0-5-3-7.9-9.3-7.9c-4.3,0-8.7,1.4-11.6,3.7l-4.2-8.1c4.4-3.1,10.9-4.9,17.3-4.9C664.3,851.9,671.4,857.6,671.4,869.8z M659.7,880
			v-4.1h-8c-5.5,0-7.2,2-7.2,4.7c0,2.9,2.5,4.9,6.6,4.9C655,885.5,658.4,883.7,659.7,880z"/>
		<path class="st13" d="M749.9,869.7v23h-11.7v-21.2c0-6.5-2.9-9.5-7.6-9.5c-5.2,0-8.9,3.4-8.9,10.5v20.2H710v-21.2
			c0-6.5-2.8-9.5-7.6-9.5c-5.2,0-8.8,3.4-8.8,10.5v20.2h-11.7v-40.2h11.1v4.6c3-3.4,7.5-5.2,12.6-5.2c5.6,0,10.4,2.2,13.2,6.6
			c3.2-4.1,8.4-6.6,14.5-6.6C743,851.9,749.9,857.5,749.9,869.7z"/>
		<path class="st13" d="M799.9,875.9h-30.4c1.1,5,5.4,8.1,11.5,8.1c4.3,0,7.3-1.3,10.1-3.9l6.2,6.7c-3.7,4.3-9.3,6.5-16.6,6.5
			c-13.9,0-22.9-8.7-22.9-20.7c0-12,9.2-20.7,21.4-20.7c11.8,0,20.9,7.9,20.9,20.9C800.2,873.7,800,875,799.9,875.9z M769.4,869.1
			h19.8c-0.8-5.1-4.6-8.4-9.9-8.4C774,860.8,770.2,864,769.4,869.1z"/>
		<path class="st13" d="M871.8,852.5l-14.6,40.2H846l-9-25l-9.3,25h-11.2l-14.5-40.2h11l9.5,27.2l9.9-27.2h9.9l9.6,27.2l9.8-27.2
			H871.8z"/>
		<path class="st13" d="M873.1,872.6c0-12.1,9.3-20.7,22.1-20.7s22,8.6,22,20.7s-9.3,20.7-22,20.7S873.1,884.8,873.1,872.6z
			 M905.5,872.6c0-7-4.4-11.1-10.2-11.1c-5.8,0-10.3,4.2-10.3,11.1s4.5,11.1,10.3,11.1C901.1,883.8,905.5,879.6,905.5,872.6z"/>
		<path class="st13" d="M950,851.9v10.8c-1-0.1-1.7-0.1-2.6-0.1c-6.4,0-10.7,3.5-10.7,11.2v19H925v-40.2h11.1v5.3
			C939,854,943.8,851.9,950,851.9z"/>
		<path class="st13" d="M974.2,877l-5.6,5.5v10.2H957v-55.5h11.7v31.4l17-16.1h13.9l-16.7,17l18.2,23.2h-14.1L974.2,877z"/>
	</g>
</g>
</svg>
